<?xml version="1.0" encoding="UTF-8"?>
<svg version="1.1" xmlns="http://www.w3.org/2000/svg" width="1024" height="1024">
<path d="M0 0 C337.92 0 675.84 0 1024 0 C1024 337.92 1024 675.84 1024 1024 C686.08 1024 348.16 1024 0 1024 C0 686.08 0 348.16 0 0 Z " fill="#F8F7F3" transform="translate(0,0)"/>
<path d="M0 0 C2.22263423 0.73444165 4.44529281 1.46880959 6.66796875 2.203125 C7.97191564 2.6384527 9.275785 3.07401269 10.57958984 3.50976562 C16.8266105 5.5924013 23.08971492 7.62586724 29.35089111 9.66545105 C34.63683046 11.38747702 39.92166026 13.11270393 45.20361328 14.84692383 C55.22304364 18.13427144 65.24917291 21.38913392 75.31640625 24.52734375 C77.86613673 25.32878757 80.41548962 26.13142064 82.96472168 26.93444824 C84.55745299 27.4320709 86.15208849 27.92364379 87.74865723 28.40881348 C89.93763711 29.0741339 92.11941135 29.75943034 94.30078125 30.44921875 C95.51805908 30.82393311 96.73533691 31.19864746 97.98950195 31.5847168 C101.67521442 33.28218841 102.91731115 34.56022332 105.0625 38 C105.44516521 40.99395011 105.60026525 43.61452616 105.56420898 46.60375977 C105.57231346 47.88802856 105.57231346 47.88802856 105.58058167 49.19824219 C105.59308557 52.02964904 105.57654621 54.86004078 105.55859375 57.69140625 C105.55874891 59.6765905 105.56024074 61.66177506 105.56300354 63.6469574 C105.56438901 67.81742685 105.5518214 71.98755312 105.52905273 76.15795898 C105.50094502 81.44603733 105.50332739 86.73353368 105.51614285 92.02165318 C105.52318434 96.1306789 105.51521105 100.23957587 105.50288582 104.34858513 C105.49843318 106.29418375 105.49797899 108.23979654 105.50195122 110.18539619 C105.51989309 126.73443724 104.01781439 143.00535004 99.8125 159.0625 C99.60197998 159.8764624 99.39145996 160.6904248 99.17456055 161.52905273 C91.58592751 189.86559288 77.42059288 214.13468425 58.0625 236 C57.3715625 236.80179688 56.680625 237.60359375 55.96875 238.4296875 C45.34234428 250.56831249 33.85480557 262.15413391 21.0625 272 C19.95281176 272.88600146 18.84483646 273.77415118 17.73828125 274.6640625 C-7.48145252 294.86431772 -7.48145252 294.86431772 -16.9375 294 C-19.68359375 292.671875 -19.68359375 292.671875 -22.375 290.75 C-23.921875 289.65365234 -23.921875 289.65365234 -25.5 288.53515625 C-26.64682451 287.69144979 -27.79260509 286.84632304 -28.9375 286 C-29.56398438 285.5447998 -30.19046875 285.08959961 -30.8359375 284.62060547 C-52.45495 268.90302795 -73.44710412 251.12667332 -89.9375 230 C-90.68435059 229.05979004 -90.68435059 229.05979004 -91.44628906 228.10058594 C-120.0553718 192.05967894 -131.97359667 152.47926019 -132.2109375 106.6328125 C-132.21626118 105.667243 -132.22158485 104.70167351 -132.22706985 103.70684433 C-132.25362406 98.61121164 -132.27306804 93.51560214 -132.28759766 88.41992188 C-132.30100721 84.21234746 -132.32901303 80.00524994 -132.36962891 75.79785156 C-132.41885976 70.69525173 -132.44370336 65.59308825 -132.45082474 60.49026108 C-132.45753846 58.5517485 -132.47276366 56.61324576 -132.49671555 54.67486954 C-132.5282721 51.97038615 -132.52842052 49.26760677 -132.52099609 46.56298828 C-132.53740143 45.76603043 -132.55380676 44.96907257 -132.57070923 44.14796448 C-132.5254083 40.11895159 -132.13456553 38.24807083 -129.59742737 35.05426025 C-126.52776761 32.68356393 -123.88379286 31.59724715 -120.19140625 30.4140625 C-119.52478973 30.19566208 -118.85817322 29.97726166 -118.1713562 29.75224304 C-115.95192233 29.0288592 -113.72623427 28.32714793 -111.5 27.625 C-109.91432218 27.11238126 -108.32912793 26.59826463 -106.74438477 26.08276367 C-103.3154891 24.96992708 -99.8839204 23.86590913 -96.45019531 22.76806641 C-89.7254912 20.61568529 -83.01444047 18.42189045 -76.30305481 16.22840881 C-71.35451298 14.61117876 -66.40516218 12.99661707 -61.45288086 11.39086914 C-53.04716675 8.66354013 -44.64790172 5.92656781 -36.29296875 3.046875 C-35.04652588 2.61979248 -33.80008301 2.19270996 -32.51586914 1.75268555 C-30.30692182 0.99138345 -28.10129558 0.22033111 -25.90014648 -0.56323242 C-16.24474596 -3.88602029 -9.60799598 -3.28198831 0 0 Z " fill="#187BCF" transform="translate(251.9375,361)"/>
<path d="M0 0 C2 2 2 2 2.5625 4.625 C1.70074094 9.79555437 -1.38133262 12.36264759 -5 16 C-6.35544922 17.37671875 -6.35544922 17.37671875 -7.73828125 18.78125 C-10.47181083 21.54158342 -13.2347414 24.27144837 -16 27 C-17.66787483 28.66545762 -19.33474516 30.3319227 -21 32 C-26 37 -26 37 -28 38.9296875 C-33.81939609 44.60763994 -38.94168508 50.64259939 -44 57 C-44.92455214 58.1351168 -45.85038959 59.26918763 -46.77734375 60.40234375 C-65.67634929 83.59557611 -81.90484911 108.81809725 -98 134 C-101.24351061 132.9188298 -101.66636872 132.46619291 -103.56640625 129.82421875 C-104.04650146 129.16752197 -104.52659668 128.5108252 -105.02124023 127.83422852 C-105.52985596 127.12580811 -106.03847168 126.4173877 -106.5625 125.6875 C-110.22615538 120.68778554 -113.92384368 115.78677088 -117.9375 111.0625 C-122.49016684 105.686711 -126.76628839 100.13245636 -131.01855469 94.51708984 C-135.31018755 88.86224738 -139.71647516 83.31006537 -144.21826172 77.82104492 C-148.25836635 72.84566649 -150.58941378 69.57771515 -150.3671875 62.97265625 C-150 61 -150 61 -148.0625 58 C-144.59181206 55.73342828 -142.71382456 55.07493353 -138.62109375 55.34375 C-128.61447967 57.84913177 -119.3363276 66.52001746 -111.17993164 72.60620117 C-110.4502417 73.14607666 -109.72055176 73.68595215 -108.96875 74.2421875 C-108.32357422 74.7254248 -107.67839844 75.20866211 -107.01367188 75.70654297 C-104.76528956 77.15076332 -102.48695003 78.03716839 -100 79 C-99.51664185 78.51442123 -99.03328369 78.02884247 -98.53527832 77.52854919 C-93.47647054 72.44751395 -88.41406378 67.37008467 -83.34960938 62.29467773 C-81.4629887 60.4036151 -79.57785518 58.51110381 -77.69335938 56.61791992 C-74.97505715 53.88740545 -72.25346677 51.16020492 -69.53125 48.43359375 C-68.28075867 47.17536049 -68.28075867 47.17536049 -67.00500488 45.89170837 C-62.16568144 41.05192816 -57.20156682 36.44649696 -52 32 C-50.93952488 31.06332364 -49.88060163 30.12488291 -48.82421875 29.18359375 C-11.84809846 -3.35891085 -11.84809846 -3.35891085 0 0 Z " fill="#F7F6F3" transform="translate(315,426)"/>
<path d="M0 0 C6.6 0 13.2 0 20 0 C21.21816406 2.37574219 22.43632812 4.75148438 23.69140625 7.19921875 C24.89593019 9.54613916 26.10089898 11.89283068 27.3059082 14.23950195 C28.13156679 15.84798819 28.95677592 17.45670523 29.78149414 19.06567383 C34.75429447 28.7664132 39.78154162 38.42875464 45 48 C52.14649749 35.04587706 59.12993912 22.02024188 65.8972168 8.86352539 C66.41968994 7.8502417 66.94216309 6.83695801 67.48046875 5.79296875 C68.17499146 4.43981567 68.17499146 4.43981567 68.88354492 3.05932617 C70 1 70 1 71 0 C77.27 0 83.54 0 90 0 C90 28.38 90 56.76 90 86 C84.39 86 78.78 86 73 86 C72.67 68.51 72.34 51.02 72 33 C70.02 36.83625 68.04 40.6725 66 44.625 C61.20632671 53.87770865 56.3098473 63.03261438 51 72 C47.37 72 43.74 72 40 72 C38.56188473 69.41700772 37.12452001 66.83360158 35.6875 64.25 C35.30271484 63.5590625 34.91792969 62.868125 34.52148438 62.15625 C29.31327464 52.78954722 24.16505104 43.39100189 19 34 C18.67 51.49 18.34 68.98 18 87 C12.06 87 6.12 87 0 87 C0 58.29 0 29.58 0 0 Z " fill="#080D10" transform="translate(407,588)"/>
<path d="M0 0 C7.074375 -0.061875 14.14875 -0.12375 21.4375 -0.1875 C24.76026001 -0.22846802 24.76026001 -0.22846802 28.15014648 -0.27026367 C29.93212338 -0.27903643 31.71410636 -0.28667849 33.49609375 -0.29296875 C34.40008911 -0.30831665 35.30408447 -0.32366455 36.23547363 -0.33947754 C46.00122837 -0.34344574 52.93199246 2.07103388 60.05078125 8.8046875 C66.00981392 15.51606297 67.37615317 22.85451343 67.26953125 31.578125 C66.61270551 39.91695617 63.24761776 45.69004508 57.15234375 51.30859375 C50.79872172 56.30154899 44.5246603 58.14259587 36.48046875 58.09765625 C35.55903076 58.09515869 34.63759277 58.09266113 33.68823242 58.09008789 C32.53299072 58.08098389 31.37774902 58.07187988 30.1875 58.0625 C24.6496875 58.0315625 24.6496875 58.0315625 19 58 C19 67.24 19 76.48 19 86 C12.73 86 6.46 86 0 86 C0 57.62 0 29.24 0 0 Z " fill="#0B1013" transform="translate(407,386)"/>
<path d="M0 0 C7.88589817 5.47754193 11.97300491 12.22333173 13.72265625 21.64453125 C14.73198501 30.85157899 13.41942477 39.16021137 8.1796875 46.93359375 C2.75926318 53.55717861 -4.56460779 58.90439023 -13.28344727 59.86572266 C-25.29275794 60.50199546 -34.57360397 59.75559718 -44.15234375 51.89453125 C-50.53008222 45.86610354 -53.35917678 38.92578699 -53.67163086 30.2331543 C-53.84956724 19.83141568 -52.7148048 11.86782584 -45.6015625 3.7265625 C-33.06616032 -7.94432918 -14.40344649 -8.57289182 0 0 Z " fill="#070C0F" transform="translate(577.27734375,413.35546875)"/>
<path d="M0 0 C4.66375839 3.91716921 8.90694634 8.16730489 10.5625 14.1875 C10.5625 16.1675 10.5625 18.1475 10.5625 20.1875 C4.9525 20.1875 -0.6575 20.1875 -6.4375 20.1875 C-7.7575 17.8775 -9.0775 15.5675 -10.4375 13.1875 C-15.68652998 9.11950177 -22.0890672 9.52747142 -28.4375 10.1875 C-32.82469953 11.69003908 -32.82469953 11.69003908 -35.4375 15.1875 C-36.13038846 20.76411285 -36.13038846 20.76411285 -33.625 25.4375 C-27.52619731 28.78586226 -20.95226968 30.71701166 -14.33203125 32.78515625 C-13.41550781 33.07737061 -12.49898438 33.36958496 -11.5546875 33.6706543 C-9.72447793 34.25263163 -7.88992186 34.82116134 -6.05078125 35.37426758 C1.59182204 37.81020522 8.2342558 41.0954376 12.0625 48.4375 C14.66920186 55.41597987 14.6087879 61.55957623 11.5625 68.375 C7.02584551 76.42471841 0.94765044 80.91964415 -7.88671875 83.53515625 C-20.49255506 85.85107997 -34.18942226 85.31768239 -45.36328125 78.66796875 C-50.93992256 74.68765414 -54.32476971 69.64306477 -56.4375 63.1875 C-56.4375 61.2075 -56.4375 59.2275 -56.4375 57.1875 C-50.4975 57.1875 -44.5575 57.1875 -38.4375 57.1875 C-37.1175 59.8275 -35.7975 62.4675 -34.4375 65.1875 C-29.15175813 69.68600372 -24.2907781 69.73872855 -17.47265625 69.51171875 C-12.7548157 69.0077538 -9.9670786 67.56905486 -6.5 64.4375 C-4.8540541 60.9519675 -5.33293167 58.82607802 -6.4375 55.1875 C-12.61904162 49.80529566 -20.98558852 48.45563248 -28.69726562 46.27539062 C-38.67033662 43.35770627 -47.48785981 40.15445772 -53.4375 31.1875 C-55.47696925 25.06909226 -55.65012972 16.84238864 -53.6015625 10.66796875 C-49.09784827 3.00560931 -41.99429996 -2.56071054 -33.4375 -4.8125 C-22.5844124 -7.46547697 -9.26432775 -6.63479111 0 0 Z " fill="#070C0F" transform="translate(458.4375,490.8125)"/>
<path d="M0 0 C5.94 0 11.88 0 18 0 C18.33 10.56 18.66 21.12 19 32 C20.65 30.35 22.3 28.7 24 27 C30.64886453 23.06495773 37.82692652 23.04138371 45.33984375 24.43359375 C51.6082916 26.37067648 54.97155371 30.42621629 58.13476562 35.99926758 C62.52730716 46.03051384 61.43126223 56.97507334 61.25 67.6875 C61.22990479 69.75714418 61.21165937 71.82680719 61.1953125 73.89648438 C61.15155539 78.93146007 61.0826941 83.96551942 61 89 C55.06 89 49.12 89 43 89 C42.94392578 84.66488281 42.94392578 84.66488281 42.88671875 80.2421875 C42.84046072 77.43221623 42.78924261 74.62237591 42.73754883 71.8125 C42.70436735 69.86499032 42.67631443 67.91738603 42.65356445 65.96972656 C42.61989366 63.16430485 42.56757173 60.35974472 42.51171875 57.5546875 C42.50532883 56.68883026 42.4989389 55.82297302 42.49235535 54.93087769 C42.37092695 49.89810157 41.78353474 46.36054721 39 42 C35.11698728 38.76415607 31.9607761 38.54902035 27 39 C22.80704993 40.6131945 21.61000115 42.74273444 19.78991699 46.69897461 C18.44299032 50.6225672 18.39669254 54.41427568 18.390625 58.53125 C18.37408875 59.40777222 18.35755249 60.28429443 18.34051514 61.18737793 C18.29233497 63.95832535 18.27073153 66.72872523 18.25 69.5 C18.22181516 71.39065211 18.19188424 73.28127904 18.16015625 75.171875 C18.08332926 79.78149458 18.04253294 84.38942944 18 89 C12.06 89 6.12 89 0 89 C0 59.63 0 30.26 0 0 Z " fill="#0C1013" transform="translate(687,586)"/>
<path d="M0 0 C8.49889291 5.03594621 12.29064385 11.12559924 15.25 20.4375 C16.43240326 25.36418026 16.25 29.1386546 16.25 34.4375 C0.74 34.4375 -14.77 34.4375 -30.75 34.4375 C-29.06311874 43.56047082 -29.06311874 43.56047082 -22.75 48.4375 C-17.50282664 50.18655779 -12.55844425 50.10729417 -7.375 48.1875 C-4.66884885 46.68147289 -4.66884885 46.68147289 -3.62890625 44.34375 C-1.3987172 42.08110497 -0.80826944 42.14173805 2.26171875 42.046875 C3.82079139 42.07341241 5.37961831 42.12104401 6.9375 42.1875 C8.13342773 42.21457031 8.13342773 42.21457031 9.35351562 42.2421875 C11.31952449 42.28927753 13.28491494 42.36102101 15.25 42.4375 C12.63947178 50.66982365 8.67623808 56.25838723 1.203125 60.63671875 C-7.71269329 64.90015535 -18.7011091 64.74289789 -28.1875 62.375 C-36.33169391 59.42718571 -41.91375975 54.26832326 -45.875 46.6484375 C-49.34372411 37.88371496 -49.25492185 25.77939815 -46.7265625 16.8046875 C-42.99916594 8.7526872 -37.29688015 2.19761192 -29.0078125 -1.2421875 C-19.8949626 -4.43455331 -8.71537493 -4.07443778 0 0 Z " fill="#060B0E" transform="translate(635.75,511.5625)"/>
<path d="M0 0 C1.2051123 -0.01546875 1.2051123 -0.01546875 2.43457031 -0.03125 C10.75950279 0.09162723 17.47569247 2.34019684 23.4375 8.4375 C27.77987092 14.66521667 27.9763193 20.54021884 27.828125 27.9375 C27.82246521 29.01378662 27.81680542 30.09007324 27.81097412 31.19897461 C27.78871234 34.61228265 27.73853352 38.02451309 27.6875 41.4375 C27.66742189 43.76170351 27.64917342 46.0859236 27.6328125 48.41015625 C27.58888073 54.08634814 27.51992276 59.76174182 27.4375 65.4375 C22.4875 65.4375 17.5375 65.4375 12.4375 65.4375 C11.9425 61.4775 11.9425 61.4775 11.4375 57.4375 C10.756875 58.365625 10.07625 59.29375 9.375 60.25 C5.43114741 64.84572905 1.89755415 66.21310317 -4.03125 66.75390625 C-12.38230879 67.01278907 -19.75018493 66.7848571 -26.1796875 60.9765625 C-30.27640088 56.41694365 -30.94084831 52.61644888 -30.83984375 46.58984375 C-30.14556413 41.20184279 -27.52269123 37.39769123 -23.75 33.625 C-15.37032194 27.87424055 -7.50380989 27.2789066 2.3125 27.375 C3.19164062 27.37951172 4.07078125 27.38402344 4.9765625 27.38867188 C7.13023803 27.40037663 9.28387817 27.41830931 11.4375 27.4375 C11.18087755 25.99739519 10.90659179 24.5604313 10.625 23.125 C10.47417969 22.32449219 10.32335937 21.52398438 10.16796875 20.69921875 C9.35009229 18.16686328 8.47735393 17.10740561 6.4375 15.4375 C3.24371918 13.84060959 -0.08771315 14.06401043 -3.5625 14.4375 C-7.7857788 16.27370817 -8.43161399 17.17572797 -10.5625 21.4375 C-16.1725 21.4375 -21.7825 21.4375 -27.5625 21.4375 C-26.37798541 13.01428511 -23.50807763 8.26251102 -16.76953125 3.05078125 C-11.49468215 0.05011859 -5.91881945 0.06371663 0 0 Z " fill="#060B0E" transform="translate(507.5625,508.5625)"/>
<path d="M0 0 C6.07720039 3.99257933 9.12786716 9.35809746 11.015625 16.32421875 C11.39827584 19.94672654 11.36699377 23.52866962 11.30859375 27.16796875 C11.30434891 28.17766724 11.30010406 29.18736572 11.29573059 30.22766113 C11.27904714 33.42679432 11.24141403 36.62527858 11.203125 39.82421875 C11.18806482 42.0038971 11.17437875 44.1835854 11.16210938 46.36328125 C11.12917745 51.68384068 11.07746681 57.00392 11.015625 62.32421875 C5.735625 62.32421875 0.455625 62.32421875 -4.984375 62.32421875 C-5.479375 58.36421875 -5.479375 58.36421875 -5.984375 54.32421875 C-6.644375 55.25234375 -7.304375 56.18046875 -7.984375 57.13671875 C-11.88555101 61.72060057 -16.23768903 63.008104 -22.0390625 63.67578125 C-29.78119328 64.02190004 -35.60513568 62.82648958 -41.984375 58.32421875 C-45.90145769 54.31159746 -47.1322342 51.05285705 -47.234375 45.51171875 C-47.14946769 40.19343333 -46.23306073 36.68911562 -42.47265625 32.734375 C-34.23537347 25.16347915 -25.33243989 24.1505546 -14.609375 24.26171875 C-13.77792969 24.26623047 -12.94648437 24.27074219 -12.08984375 24.27539062 C-10.05465603 24.28708711 -8.01950577 24.3050194 -5.984375 24.32421875 C-6.64651461 17.61765607 -6.64651461 17.61765607 -10.171875 12.19921875 C-14.77843753 10.76606596 -18.34790113 10.59689703 -22.796875 12.57421875 C-25.35759869 14.37223583 -25.35759869 14.37223583 -26.984375 18.32421875 C-32.594375 18.32421875 -38.204375 18.32421875 -43.984375 18.32421875 C-42.9594875 11.15000628 -41.86175164 8.11938463 -36.796875 3.19921875 C-26.05105706 -3.96465987 -11.98695654 -5.81000444 0 0 Z " fill="#070C0F" transform="translate(552.984375,612.67578125)"/>
<path d="M0 0 C6.6 0 13.2 0 20 0 C25 13 30 26 35 39 C38.54631483 30.72090569 41.74803285 22.36541215 44.75 13.875 C45.53539788 11.66368557 46.32180301 9.45272854 47.109375 7.2421875 C47.61936035 5.80141846 47.61936035 5.80141846 48.13964844 4.33154297 C49 2 49 2 50 0 C55.94 0 61.88 0 68 0 C66.03921697 6.80261601 63.80427377 13.37245925 61.19140625 19.94921875 C60.82816254 20.87336578 60.46491882 21.79751282 60.09066772 22.74966431 C58.91827172 25.73039922 57.74044937 28.70895591 56.5625 31.6875 C55.34510558 34.77765789 54.12904961 37.86834005 52.91316223 40.95909119 C52.10223435 43.02035153 51.29086453 45.08143806 50.47904968 47.14234924 C48.02332917 53.38057127 45.58814998 59.62619624 43.1796875 65.8828125 C42.89683395 66.61722061 42.61398041 67.35162872 42.32255554 68.10829163 C41.27168997 70.83872234 40.22168659 73.56946632 39.17654419 76.30209351 C38.48311802 78.11497633 37.78657944 79.92666778 37.08984375 81.73828125 C36.70691162 82.73899658 36.32397949 83.73971191 35.92944336 84.77075195 C35 87 35 87 34 88 C32.65732587 88.08631874 31.31025678 88.10706473 29.96484375 88.09765625 C29.15595703 88.09443359 28.34707031 88.09121094 27.51367188 88.08789062 C26.66353516 88.07951172 25.81339844 88.07113281 24.9375 88.0625 C24.08349609 88.05798828 23.22949219 88.05347656 22.34960938 88.04882812 C20.23304337 88.03700373 18.11651315 88.01906769 16 88 C16.31022095 87.15405273 16.31022095 87.15405273 16.62670898 86.29101562 C17.57234441 83.69709065 18.50497345 81.09866499 19.4375 78.5 C19.76298828 77.613125 20.08847656 76.72625 20.42382812 75.8125 C20.73642578 74.9359375 21.04902344 74.059375 21.37109375 73.15625 C21.65911865 72.36025391 21.94714355 71.56425781 22.24389648 70.74414062 C24.20630624 63.6219302 24.22826125 58.99240644 21.38671875 52.15234375 C21.10126694 51.42590668 20.81581512 50.6994696 20.52171326 49.95101929 C19.59450199 47.60574867 18.64177384 45.27187376 17.6875 42.9375 C17.04355404 41.32559483 16.40081957 39.71320517 15.75927734 38.1003418 C10.99139369 26.1768072 5.98830728 14.35421817 0.69580078 2.65356445 C0 1 0 1 0 0 Z " fill="#070C0F" transform="translate(704,510)"/>
<path d="M0 0 C6.95659896 4.69327434 11.42597438 9.14433273 13.95703125 17.3203125 C13.95703125 17.9803125 13.95703125 18.6403125 13.95703125 19.3203125 C11.04012864 19.65041465 8.13029418 19.93526764 5.20703125 20.1953125 C4.38203125 20.29328125 3.55703125 20.39125 2.70703125 20.4921875 C0.32157516 20.68456299 -1.69280597 20.78509202 -4.04296875 20.3203125 C-6.49609375 17.390625 -6.49609375 17.390625 -8.04296875 14.3203125 C-11.97097465 12.35630955 -16.75083913 12.98489282 -21.04296875 13.3203125 C-24.63069689 14.66571055 -25.6561358 15.68817086 -27.64453125 18.9375 C-29.25419238 22.83126128 -29.48801077 26.18005081 -29.41796875 30.3203125 C-29.42957031 31.00609375 -29.44117188 31.691875 -29.453125 32.3984375 C-29.42085324 38.0352377 -28.2108694 42.11511463 -24.2265625 46.16796875 C-19.84130096 48.48219443 -14.84607029 47.923981 -10.04296875 47.3203125 C-6.36366147 45.22815738 -5.37247535 44.30883231 -4.04296875 40.3203125 C1.89703125 40.3203125 7.83703125 40.3203125 13.95703125 40.3203125 C12.71498584 49.01463038 9.80200662 53.29378885 3.20703125 58.7734375 C-4.50973495 64.07871426 -13.99161482 64.23585175 -23.04296875 63.3203125 C-31.99348718 61.24911815 -38.86773344 55.91775104 -43.91796875 48.3203125 C-49.10575806 39.90375922 -49.58449762 28.85429282 -47.35546875 19.40625 C-44.3250961 11.24949694 -39.72689351 4.85874664 -32.265625 0.328125 C-22.87533834 -3.92968512 -9.31440372 -5.09353626 0 0 Z " fill="#080D10" transform="translate(666.04296875,612.6796875)"/>
<path d="M0 0 C1.93359375 0.00966797 1.93359375 0.00966797 3.90625 0.01953125 C7.5 0.1875 7.5 0.1875 12.5 1.1875 C12.5 5.4775 12.5 9.7675 12.5 14.1875 C7.95898438 14.43164062 7.95898438 14.43164062 3.41796875 14.67578125 C0.54300538 14.97455605 0.54300538 14.97455605 -1.34375 16.4375 C-2.79814823 18.63875138 -2.99763304 20.25483598 -3.1875 22.875 C-3.290625 24.298125 -3.39375 25.72125 -3.5 27.1875 C1.78 27.1875 7.06 27.1875 12.5 27.1875 C12.5 31.4775 12.5 35.7675 12.5 40.1875 C7.22 40.1875 1.94 40.1875 -3.5 40.1875 C-3.5 57.0175 -3.5 73.8475 -3.5 91.1875 C-9.44 91.1875 -15.38 91.1875 -21.5 91.1875 C-21.5 74.3575 -21.5 57.5275 -21.5 40.1875 C-24.8 40.1875 -28.1 40.1875 -31.5 40.1875 C-31.5 35.8975 -31.5 31.6075 -31.5 27.1875 C-28.2 27.1875 -24.9 27.1875 -21.5 27.1875 C-21.54640625 26.341875 -21.5928125 25.49625 -21.640625 24.625 C-21.8648672 17.5773881 -21.88195059 11.94948048 -17.5 6.1875 C-12.15660842 0.98111846 -7.34144767 -0.08075592 0 0 Z " fill="#0A0F12" transform="translate(572.5,482.8125)"/>
<path d="M0 0 C5.61 0 11.22 0 17 0 C17 5.94 17 11.88 17 18 C22.28 18 27.56 18 33 18 C33 22.29 33 26.58 33 31 C27.72 31 22.44 31 17 31 C17.07397697 35.78809579 17.15677538 40.57431395 17.26245117 45.36157227 C17.29570536 46.99005409 17.32373584 48.61865131 17.34643555 50.24731445 C17.37997357 52.58855361 17.43228585 54.92873486 17.48828125 57.26953125 C17.49467117 57.99775589 17.5010611 58.72598053 17.50764465 59.47627258 C17.62260874 63.45376196 17.62260874 63.45376196 19.34960938 66.95117188 C21.880487 68.5595521 24.22498975 68.52822526 27.1875 68.6875 C29.105625 68.790625 31.02375 68.89375 33 69 C33 73.29 33 77.58 33 82 C30.14524694 82.08156437 27.29286435 82.14076372 24.4375 82.1875 C23.63763672 82.21263672 22.83777344 82.23777344 22.01367188 82.26367188 C15.23356669 82.34669357 10.61790377 81.14192127 5.25 76.75 C0.46688281 70.90396788 -0.44350718 65.7460204 -0.29296875 58.44140625 C-0.28872391 57.65225327 -0.28447906 56.86310028 -0.28010559 56.05003357 C-0.26344452 53.55382739 -0.22581779 51.05845808 -0.1875 48.5625 C-0.17243683 46.86003778 -0.15875129 45.15756279 -0.14648438 43.45507812 C-0.1135825 39.3030678 -0.06188951 35.1516753 0 31 C-3.3 31 -6.6 31 -10 31 C-10 26.71 -10 22.42 -10 18 C-6.7 18 -3.4 18 0 18 C0 12.06 0 6.12 0 0 Z " fill="#060B0F" transform="translate(665,492)"/>
<path d="M0 0 C5.61 0 11.22 0 17 0 C17 5.94 17 11.88 17 18 C22.28 18 27.56 18 33 18 C33 22.29 33 26.58 33 31 C27.72 31 22.44 31 17 31 C17.07405864 35.62738836 17.15693041 40.2528631 17.26245117 44.87939453 C17.29566372 46.45253522 17.32370717 48.02579401 17.34643555 49.59912109 C17.38005028 51.86346672 17.43236624 54.12673365 17.48828125 56.390625 C17.49467117 57.09181458 17.5010611 57.79300415 17.50764465 58.51544189 C17.62923871 62.57212403 17.99313224 65.1532613 21 68 C25.00991576 68.83741213 28.88864287 68.82316744 33 69 C33 73.29 33 77.58 33 82 C12.07430065 82.6420385 12.07430065 82.6420385 6.26953125 77.453125 C0.78778962 71.56773969 -0.30668257 65.68355872 -0.1953125 57.7578125 C-0.1924826 56.98944061 -0.18965271 56.22106873 -0.18673706 55.42941284 C-0.17561311 52.99444479 -0.1505236 50.55985538 -0.125 48.125 C-0.11496011 46.46615118 -0.10583603 44.80729654 -0.09765625 43.1484375 C-0.07569937 39.09881421 -0.04122406 35.04947113 0 31 C-3.3 31 -6.6 31 -10 31 C-10 26.71 -10 22.42 -10 18 C-6.7 18 -3.4 18 0 18 C0 12.06 0 6.12 0 0 Z " fill="#050A0D" transform="translate(579,593)"/>
<path d="M0 0 C0 5.61 0 11.22 0 17 C-2.784375 17.37125 -2.784375 17.37125 -5.625 17.75 C-10.6323349 18.60519854 -14.2171487 19.41114107 -18 23 C-20.72580633 28.25406665 -21.4603197 32.47229138 -21.51171875 38.33984375 C-21.52966995 39.10680069 -21.54762115 39.87375763 -21.56611633 40.66395569 C-21.6198448 43.08841626 -21.65399275 45.51268432 -21.6875 47.9375 C-21.72070634 49.59182346 -21.75519902 51.24612162 -21.79101562 52.90039062 C-21.87794729 56.93361566 -21.93833097 60.96599504 -22 65 C-27.61 65 -33.22 65 -39 65 C-39 44.21 -39 23.42 -39 2 C-33.39 2 -27.78 2 -22 2 C-21.67 4.31 -21.34 6.62 -21 9 C-20.49210937 8.51789063 -19.98421875 8.03578125 -19.4609375 7.5390625 C-12.85088586 1.47365931 -9.24595431 0 0 0 Z " fill="#060B0E" transform="translate(521,407)"/>
<path d="M0 0 C3.94298232 1.68134718 5.69203073 4.48671788 7.875 8.125 C10.12310875 14.26715425 9.82480506 21.27409706 7.8125 27.4375 C5.40116884 32.17701297 3.01981086 34.32672971 -2 36 C-7.05635952 36.53087424 -10.88163787 36.58968185 -15.4375 34.1875 C-16.283125 33.465625 -17.12875 32.74375 -18 32 C-18.5775 31.566875 -19.155 31.13375 -19.75 30.6875 C-23.61202536 25.47376577 -23.77750724 18.21033909 -23 12 C-21.68984373 7.66010737 -19.71609836 4.73445986 -16.5625 1.5 C-11.07078729 -0.81230009 -5.86435691 -0.85055558 0 0 Z " fill="#F7F6F3" transform="translate(564,423)"/>
<path d="M0 0 C3.34125 -0.0825 6.6825 -0.165 10.125 -0.25 C11.16672363 -0.28641602 12.20844727 -0.32283203 13.28173828 -0.36035156 C19.21140023 -0.43106498 22.48422605 0.07040825 27 4 C30.16362778 7.69089908 30.51601311 11.07818093 30.359375 15.78515625 C29.61661504 20.3628182 26.51368287 24.09739242 23 27 C20.11734851 27.96088383 18.32337729 28.11670941 15.33203125 28.09765625 C14.52741455 28.09515869 13.72279785 28.09266113 12.89379883 28.09008789 C11.36855591 28.07643188 11.36855591 28.07643188 9.8125 28.0625 C4.9553125 28.0315625 4.9553125 28.0315625 0 28 C0 18.76 0 9.52 0 0 Z " fill="#F8F7F4" transform="translate(426,401)"/>
<path d="M0 0 C1.03253906 0.01353516 1.03253906 0.01353516 2.0859375 0.02734375 C3.76577838 0.05067487 5.44543746 0.08653674 7.125 0.125 C6.39368994 6.35960295 5.12623594 10.47006052 0.296875 14.7421875 C-3.44975397 17.12763112 -7.50572322 17.26640054 -11.875 17.125 C-14.43158406 15.97714593 -15.93383196 15.06616804 -17.875 13.125 C-18.45721369 6.95353487 -18.45721369 6.95353487 -16.25 3.8125 C-11.17243202 0.20475433 -6.06341957 -0.15276057 0 0 Z " fill="#F4F3F1" transform="translate(511.875,545.875)"/>
<path d="M0 0 C5.61 0 11.22 0 17 0 C17 5.94 17 11.88 17 18 C22.28 18 27.56 18 33 18 C33 22.29 33 26.58 33 31 C27.72 31 22.44 31 17 31 C17.495 48.82 17.495 48.82 18 67 C17.34 66.67 16.68 66.34 16 66 C15.9753499 60.89136104 15.95716393 55.78275641 15.94506836 50.67407227 C15.94002796 48.93480832 15.9331957 47.19554864 15.92456055 45.45629883 C15.91248208 42.96174063 15.90676892 40.46723827 15.90234375 37.97265625 C15.89718246 37.19036148 15.89202118 36.40806671 15.88670349 35.60206604 C15.88650774 33.73432886 15.93800306 31.86670796 16 30 C17 29 17 29 20.37890625 28.90234375 C21.77347077 28.90901631 23.16801743 28.92097468 24.5625 28.9375 C25.62887695 28.94426758 25.62887695 28.94426758 26.71679688 28.95117188 C28.47790013 28.96299136 30.23896036 28.98092737 32 29 C32 25.7 32 22.4 32 19 C31.01 19.495 31.01 19.495 30 20 C28.18958207 20.09632897 26.37547247 20.12981533 24.5625 20.125 C23.59441406 20.12757813 22.62632812 20.13015625 21.62890625 20.1328125 C19 20 19 20 16 19 C16 13.39 16 7.78 16 2 C11.38 2 6.76 2 2 2 C2 7.61 2 13.22 2 19 C-1.3 19 -4.6 19 -8 19 C-8 22.3 -8 25.6 -8 29 C-6.081875 28.938125 -6.081875 28.938125 -4.125 28.875 C-1.9453125 28.8046875 -1.9453125 28.8046875 0 29 C3.05080946 32.05080946 2.35788708 35.62810779 2.4140625 39.7265625 C2.43342865 40.58937836 2.4527948 41.45219421 2.4727478 42.34115601 C2.53262204 45.10233616 2.57895998 47.86355784 2.625 50.625 C2.66317259 52.49481005 2.70222389 54.36460238 2.7421875 56.234375 C2.83832992 60.82277309 2.92233166 65.41125351 3 70 C2.34 70 1.68 70 1 70 C-0.25282725 66.24151826 -0.12381835 62.74509081 -0.09765625 58.83203125 C-0.0962413 58.03721848 -0.09482635 57.2424057 -0.09336853 56.42350769 C-0.08777378 53.88646675 -0.07522228 51.34951425 -0.0625 48.8125 C-0.05748432 47.09179815 -0.05292153 45.37109492 -0.04882812 43.65039062 C-0.03780607 39.4335597 -0.02054506 35.21679484 0 31 C-3.3 31 -6.6 31 -10 31 C-10 26.71 -10 22.42 -10 18 C-6.7 18 -3.4 18 0 18 C0 12.06 0 6.12 0 0 Z " fill="#030405" transform="translate(665,492)"/>
<path d="M0 0 C1.89492188 0.01353516 1.89492188 0.01353516 3.828125 0.02734375 C4.79234375 0.03894531 5.7565625 0.05054688 6.75 0.0625 C6.53938009 6.06516747 5.54231309 9.28648943 1.35546875 13.65234375 C-1.89067666 16.50358096 -4.51430875 16.98367594 -8.75 17.4375 C-12.94712172 16.98780839 -14.52521564 16.2826997 -17.25 13.0625 C-17.9375 9.625 -17.9375 9.625 -17.25 6.0625 C-11.70338235 0.26376337 -7.72820935 -0.07155749 0 0 Z " fill="#F4F3F0" transform="translate(540.25,646.9375)"/>
<path d="M0 0 C4.32146998 3.79446144 5.40192136 5.44710678 6.5625 11.25 C-3.3375 11.25 -13.2375 11.25 -23.4375 11.25 C-22.2375 4.05 -22.2375 4.05 -18.4375 0.25 C-12.90739413 -3.16565363 -5.62010059 -2.86114212 0 0 Z " fill="#F6F5F3" transform="translate(628.4375,523.75)"/>
<path d="M0 0 C5.61 0 11.22 0 17 0 C17 1.98 17 3.96 17 6 C16.01 4.68 15.02 3.36 14 2 C10.04 2 6.08 2 2 2 C2 21.8 2 41.6 2 62 C8.435 61.505 8.435 61.505 15 61 C15.33 49.78 15.66 38.56 16 27 C16.33 27 16.66 27 17 27 C17 38.88 17 50.76 17 63 C11.39 63 5.78 63 0 63 C0 42.21 0 21.42 0 0 Z " fill="#000001" transform="translate(482,409)"/>
<path d="M0 0 C0.66 0 1.32 0 2 0 C2 15.18 2 30.36 2 46 C-3.28 46 -8.56 46 -14 46 C-14 43.36 -14 40.72 -14 38 C-13.34 38.33 -12.68 38.66 -12 39 C-12 40.65 -12 42.3 -12 44 C-8.04 44 -4.08 44 0 44 C0 29.48 0 14.96 0 0 Z " fill="#232425" transform="translate(562,629)"/>
<path d="M0 0 C3 4 3 4 4 7 C3.34 7 2.68 7 2 7 C2.00222061 7.58437836 2.00444122 8.16875671 2.00672913 8.77084351 C2.02880388 14.83745718 2.0439158 20.90405949 2.05493164 26.97070312 C2.05996926 29.23665836 2.06679952 31.50261033 2.07543945 33.76855469 C2.08752996 37.02019047 2.09323392 40.27178339 2.09765625 43.5234375 C2.10281754 44.54118256 2.10797882 45.55892761 2.11329651 46.60751343 C2.11340981 48.01874985 2.11340981 48.01874985 2.11352539 49.45849609 C2.115746 50.28900482 2.11796661 51.11951355 2.12025452 51.97518921 C2 54 2 54 1 56 C-4.94 56 -10.88 56 -17 56 C-17 55.67 -17 55.34 -17 55 C-11.39 55 -5.78 55 0 55 C0 36.85 0 18.7 0 0 Z " fill="#FDFEFD" transform="translate(425,620)"/>
<path d="M0 0 C0.33 0 0.66 0 1 0 C1 4.29 1 8.58 1 13 C-2 14 -2 14 -16 13 C-15.67 29.83 -15.34 46.66 -15 64 C-18.76300374 65.25433458 -22.27210909 65.10695422 -26.1875 65.0625 C-26.93708984 65.05798828 -27.68667969 65.05347656 -28.45898438 65.04882812 C-30.30602383 65.03706354 -32.15302213 65.01912865 -34 65 C-34 64.34 -34 63.68 -34 63 C-28.39 63 -22.78 63 -17 63 C-17 46.17 -17 29.34 -17 12 C-11.39 12 -5.78 12 0 12 C0 8.04 0 4.08 0 0 Z " fill="#FEFEFD" transform="translate(586,511)"/>
<path d="M0 0 C0.33 0 0.66 0 1 0 C1.33 6.27 1.66 12.54 2 19 C-1.21451269 20.60725635 -4.43612536 20.05748185 -8 20 C-8 23.3 -8 26.6 -8 30 C-6.88625 29.814375 -5.7725 29.62875 -4.625 29.4375 C-1 29 -1 29 1 30 C1 41.88 1 53.76 1 66 C0.67 66 0.34 66 0 66 C0 54.45 0 42.9 0 31 C-3.3 31 -6.6 31 -10 31 C-10 26.71 -10 22.42 -10 18 C-6.7 18 -3.4 18 0 18 C0 12.06 0 6.12 0 0 Z " fill="#212425" transform="translate(579,593)"/>
<path d="M0 0 C15.84 0 31.68 0 48 0 C48 0.66 48 1.32 48 2 C47.42814972 2.01030746 46.85629944 2.02061493 46.26712036 2.03123474 C40.33014214 2.13918315 34.39331929 2.25379042 28.45654297 2.37231445 C26.23912803 2.41570078 24.02167888 2.45737308 21.80419922 2.49731445 C18.62196528 2.55492754 15.43990416 2.61864764 12.2578125 2.68359375 C11.26194122 2.70030624 10.26606995 2.71701874 9.24002075 2.73423767 C8.31921722 2.75418289 7.3984137 2.77412811 6.44970703 2.79467773 C5.6369632 2.81022202 4.82421936 2.8257663 3.98684692 2.84178162 C1.92561733 2.88102414 1.92561733 2.88102414 0 4 C0 2.68 0 1.36 0 0 Z " fill="#FEFEFD" transform="translate(605,546)"/>
<path d="M0 0 C0.99 0.33 1.98 0.66 3 1 C2.67 4.3 2.34 7.6 2 11 C4.1965625 10.9690625 4.1965625 10.9690625 6.4375 10.9375 C7.95832518 10.91607993 9.48071962 10.92820036 11 11 C12 12 12 12 12.12025452 14.05641174 C12.1169236 15.41209511 12.1169236 15.41209511 12.11352539 16.79516602 C12.11344986 17.81614883 12.11337433 18.83713165 12.11329651 19.88905334 C12.10813522 20.9994548 12.10297394 22.10985626 12.09765625 23.25390625 C12.0962413 24.38448959 12.09482635 25.51507294 12.09336853 26.67991638 C12.08775019 30.30747065 12.07519458 33.93496424 12.0625 37.5625 C12.05748736 40.01497307 12.05292405 42.4674471 12.04882812 44.91992188 C12.0377748 50.94663545 12.02101884 56.97331339 12 63 C11.67 63 11.34 63 11 63 C11 46.5 11 30 11 13 C7.37 13 3.74 13 0 13 C0 8.71 0 4.42 0 0 Z " fill="#000000" transform="translate(541,510)"/>
<path d="M0 0 C0.66 0.33 1.32 0.66 2 1 C2.33 2.65 2.66 4.3 3 6 C-6.9 6 -16.8 6 -27 6 C-26.67 5.01 -26.34 4.02 -26 3 C-17.42 3 -8.84 3 0 3 C0 2.01 0 1.02 0 0 Z " fill="#FCFDFC" transform="translate(632,529)"/>
<path d="M0 0 C0.33 0 0.66 0 1 0 C1 3.96 1 7.92 1 12 C-2.3 12 -5.6 12 -9 12 C-9 16.29 -9 20.58 -9 25 C-6.69 25 -4.38 25 -2 25 C-2 25.33 -2 25.66 -2 26 C-4.97 26 -7.94 26 -11 26 C-11.02685095 23.52076199 -11.04676547 21.0418116 -11.0625 18.5625 C-11.07506836 17.50192383 -11.07506836 17.50192383 -11.08789062 16.41992188 C-11.09653588 14.61306441 -11.05220011 12.80612397 -11 11 C-10 10 -10 10 -7.71484375 9.90234375 C-5.14322917 9.93489583 -2.57161458 9.96744792 0 10 C0 6.7 0 3.4 0 0 Z " fill="#FDFDFC" transform="translate(550,498)"/>
<path d="M0 0 C0 0.66 0 1.32 0 2 C-2.08201528 2.50546036 -4.16567067 3.00416835 -6.25 3.5 C-7.41015625 3.7784375 -8.5703125 4.056875 -9.765625 4.34375 C-13 5 -13 5 -17 5 C-17 4.34 -17 3.68 -17 3 C-11.06108578 0.4084738 -6.45892714 -0.40368295 0 0 Z " fill="#E5E5E3" transform="translate(522,424)"/>
<path d="M0 0 C0.66 0 1.32 0 2 0 C6.67490396 8.4106531 6.67490396 8.4106531 6 13 C5.67 13.66 5.34 14.32 5 15 C1.6875 15.1875 1.6875 15.1875 -2 15 C-2.99 14.01 -3.98 13.02 -5 12 C-1.7 12 1.6 12 5 12 C3.35 8.04 1.7 4.08 0 0 Z " fill="#EEEEED" transform="translate(675,620)"/>
<path d="M0 0 C0.99 0 1.98 0 3 0 C3 4.62 3 9.24 3 14 C2.01 14.33 1.02 14.66 0 15 C0 10.05 0 5.1 0 0 Z " fill="#F0F0EE" transform="translate(698,560)"/>
<path d="M0 0 C3.625 -0.1875 3.625 -0.1875 7 0 C7 0.66 7 1.32 7 2 C6.34 2 5.68 2 5 2 C5 6.62 5 11.24 5 16 C2.36 16 -0.28 16 -3 16 C-3 15.67 -3 15.34 -3 15 C-0.69 15 1.62 15 4 15 C4 11.04 4 7.08 4 3 C2.02 3 0.04 3 -2 3 C-1.34 2.01 -0.68 1.02 0 0 Z " fill="#1C2023" transform="translate(514,407)"/>
<path d="M0 0 C0.33 0.66 0.66 1.32 1 2 C0.67 2.66 0.34 3.32 0 4 C4.95 3.67 9.9 3.34 15 3 C15 3.99 15 4.98 15 6 C9.39 6 3.78 6 -2 6 C-1.34 4.02 -0.68 2.04 0 0 Z " fill="#2B2C2B" transform="translate(482,524)"/>
<path d="M0 0 C6.6 0 13.2 0 20 0 C20.33 1.98 20.66 3.96 21 6 C20.34 4.68 19.68 3.36 19 2 C12.8894576 1.88730557 7.04829486 2.10395632 1 3 C0.67 2.01 0.34 1.02 0 0 Z " fill="#010203" transform="translate(704,510)"/>
<path d="M0 0 C2 3 2 3 2 5 C1.34 5 0.68 5 0 5 C0 6.175625 0 7.35125 0 8.5625 C-0.46098779 12.66748647 -1.9689287 14.33199935 -5.0625 17 C-6.35893402 18.02074242 -7.66659871 19.02804462 -9 20 C-9.66 19.67 -10.32 19.34 -11 19 C-10.54109375 18.55011719 -10.0821875 18.10023438 -9.609375 17.63671875 C-4.49493081 12.27514805 -2.09157186 7.06717447 0 0 Z " fill="#EBEBEA" transform="translate(590,447)"/>
<path d="M0 0 C6.50313209 -0.46450943 10.4174808 0.67424388 16 4 C15.34 4.66 14.68 5.32 14 6 C13.44828125 5.68289063 12.8965625 5.36578125 12.328125 5.0390625 C9.71522011 3.87290025 7.59420998 3.59954289 4.75 3.375 C3.85796875 3.30023438 2.9659375 3.22546875 2.046875 3.1484375 C1.03367187 3.07496094 1.03367187 3.07496094 0 3 C0 2.01 0 1.02 0 0 Z " fill="#121415" transform="translate(432,497)"/>
<path d="M0 0 C-1 3 -1 3 -3 4 C-5.04055005 4.07065617 -7.08334257 4.08421976 -9.125 4.0625 C-10.22070312 4.05347656 -11.31640625 4.04445313 -12.4453125 4.03515625 C-13.70988281 4.01775391 -13.70988281 4.01775391 -15 4 C-15 3.01 -15 2.02 -15 1 C-13.06263299 0.83179449 -11.12510094 0.66548905 -9.1875 0.5 C-7.56908203 0.36078125 -7.56908203 0.36078125 -5.91796875 0.21875 C-3 0 -3 0 0 0 Z " fill="#E2E0DF" transform="translate(569,472)"/>
<path d="M0 0 C0.68126953 -0.020625 1.36253906 -0.04125 2.06445312 -0.0625 C7.10436864 -0.10199003 7.10436864 -0.10199003 9.53515625 1.765625 C9.87417969 2.25546875 10.21320312 2.7453125 10.5625 3.25 C8.29173158 3.27699725 6.02087179 3.29639453 3.75 3.3125 C1.85314453 3.32990234 1.85314453 3.32990234 -0.08203125 3.34765625 C-3.61075536 3.24495764 -6.11028824 2.35907059 -9.4375 1.25 C-6.41891234 -0.25929383 -3.30849046 0.02489927 0 0 Z " fill="#EAEAE7" transform="translate(536.4375,606.75)"/>
<path d="M0 0 C-2 3 -2 3 -3.875 3.4765625 C-4.926875 3.55003906 -4.926875 3.55003906 -6 3.625 C-9.11438544 3.86279979 -9.11438544 3.86279979 -12 5 C-11 2 -11 2 -9.375 0.8125 C-6.19617272 -0.27499354 -3.33338467 -0.1282071 0 0 Z M-13 5 C-12.67 5.66 -12.34 6.32 -12 7 C-12.99 7.99 -13.98 8.98 -15 10 C-14.34 8.35 -13.68 6.7 -13 5 Z " fill="#E9E9E8" transform="translate(721,624)"/>
<path d="M0 0 C0.66 0.66 1.32 1.32 2 2 C1.40832031 2.30292969 0.81664062 2.60585938 0.20703125 2.91796875 C-4.61889957 5.47657808 -8.37448622 7.90667799 -12 12 C-12.33 11.34 -12.66 10.68 -13 10 C-9.11973109 5.75595588 -4.95745654 2.89082453 0 0 Z " fill="#EDEDEC" transform="translate(541,409)"/>
<path d="M0 0 C0.33 0 0.66 0 1 0 C1.16858098 2.0831793 1.33479255 4.16655044 1.5 6.25 C1.5928125 7.41015625 1.685625 8.5703125 1.78125 9.765625 C1.94404644 12.17268658 2 14.58743951 2 17 C-0.67898799 14.32101201 -0.65747987 12.7677214 -1 9 C-0.79307543 5.97988664 -0.43268575 2.99551673 0 0 Z " fill="#EBEBE9" transform="translate(637,639)"/>
<path d="M0 0 C0.99 0 1.98 0 3 0 C3.67119549 1.4562545 4.33681807 2.91507867 5 4.375 C5.556875 5.59316406 5.556875 5.59316406 6.125 6.8359375 C7 9 7 9 7 11 C6.34 11 5.68 11 5 11 C3.35 7.37 1.7 3.74 0 0 Z " fill="#ECECEB" transform="translate(439,612)"/>
<path d="M0 0 C0.99 0 1.98 0 3 0 C3.268125 0.804375 3.53625 1.60875 3.8125 2.4375 C4.204375 3.283125 4.59625 4.12875 5 5 C5.99 5.33 6.98 5.66 8 6 C8.6875 8.0625 8.6875 8.0625 9 10 C5.31003189 7.70401984 2.26324354 5.77207256 0 2 C0 1.34 0 0.68 0 0 Z " fill="#0F1113" transform="translate(478,563)"/>
<path d="M0 0 C0.33 0 0.66 0 1 0 C1.05449838 1.72880982 1.09301688 3.45812712 1.125 5.1875 C1.14820313 6.15042969 1.17140625 7.11335937 1.1953125 8.10546875 C0.9913544 11.12812778 0.26874632 13.26769985 -1 16 C-1.66 15.67 -2.32 15.34 -3 15 C-2.01 10.05 -1.02 5.1 0 0 Z " fill="#E9F0F3" transform="translate(353,510)"/>
<path d="M0 0 C0.90492188 0.02320313 1.80984375 0.04640625 2.7421875 0.0703125 C4.10730469 0.09738281 4.10730469 0.09738281 5.5 0.125 C6.19867187 0.14820313 6.89734375 0.17140625 7.6171875 0.1953125 C6.41015625 1.71484375 6.41015625 1.71484375 4.6171875 3.1953125 C2.35546875 3.26953125 2.35546875 3.26953125 -0.0703125 2.8828125 C-1.28267578 2.70298828 -1.28267578 2.70298828 -2.51953125 2.51953125 C-3.13441406 2.41253906 -3.74929688 2.30554688 -4.3828125 2.1953125 C-2.3828125 0.1953125 -2.3828125 0.1953125 0 0 Z " fill="#16181A" transform="translate(595.3828125,671.8046875)"/>
<path d="M0 0 C0.99 0.33 1.98 0.66 3 1 C2.01 1.66 1.02 2.32 0 3 C-0.57748803 4.96361864 -0.57748803 4.96361864 -0.6875 7.125 C-0.790625 8.40375 -0.89375 9.6825 -1 11 C-1.66 10.67 -2.32 10.34 -3 10 C-3.36923077 3.47692308 -3.36923077 3.47692308 -1.5 1.0625 C-1.005 0.711875 -0.51 0.36125 0 0 Z " fill="#FAFBF9" transform="translate(526,650)"/>
<path d="M0 0 C4.87685861 1.35468295 6.48592381 3.71675909 9 8 C8.67 8.66 8.34 9.32 8 10 C6 9 6 9 4.5625 6.5625 C3.10335955 3.7644028 3.10335955 3.7644028 0 2 C0 1.34 0 0.68 0 0 Z " fill="#EAEBEA" transform="translate(443,501)"/>
<path d="M0 0 C1.485 0.99 1.485 0.99 3 2 C2.39009109 5.55780196 1.4216319 8.6828589 0 12 C-1.53166168 7.91556885 -0.63081652 4.20544343 0 0 Z " fill="#ECECEA" transform="translate(474,413)"/>
<path d="M0 0 C1.27875 0.103125 2.5575 0.20625 3.875 0.3125 C4.95394531 0.39951172 4.95394531 0.39951172 6.0546875 0.48828125 C8 1 8 1 10 4 C7.03 3.67 4.06 3.34 1 3 C0.67 2.01 0.34 1.02 0 0 Z " fill="#121416" transform="translate(517,672)"/>
<path d="M0 0 C0.33 0 0.66 0 1 0 C0.67 2.31 0.34 4.62 0 7 C-0.99 7 -1.98 7 -3 7 C-5.15028304 7.94978897 -5.15028304 7.94978897 -7 9 C-7 8.34 -7 7.68 -7 7 C-5.34614767 5.65080468 -3.678298 4.31866272 -2 3 C-1.34 2.01 -0.68 1.02 0 0 Z " fill="#F0F0EF" transform="translate(547,666)"/>
<path d="M0 0 C0.66 0.33 1.32 0.66 2 1 C0.68 4.3 -0.64 7.6 -2 11 C-2.66 10.67 -3.32 10.34 -4 10 C-3.67 8.35 -3.34 6.7 -3 5 C-2.34 5 -1.68 5 -1 5 C-0.67 3.35 -0.34 1.7 0 0 Z " fill="#EAEAE9" transform="translate(742,539)"/>
<path d="M0 0 C1.98 0 3.96 0 6 0 C6 0.66 6 1.32 6 2 C7.65 2.33 9.3 2.66 11 3 C6.99799622 4.60080151 3.95443764 3.29279692 0 2 C0 1.34 0 0.68 0 0 Z " fill="#121314" transform="translate(432,536)"/>
<path d="M0 0 C0.66 0 1.32 0 2 0 C2.67408308 1.26691507 3.33900497 2.53870749 4 3.8125 C4.556875 4.87404297 4.556875 4.87404297 5.125 5.95703125 C6 8 6 8 6 11 C2.90407165 7.4912812 1.25805377 4.50802601 0 0 Z " fill="#111313" transform="translate(589,554)"/>
<path d="M0 0 C-0.33 0.99 -0.66 1.98 -1 3 C-4.96 2.67 -8.92 2.34 -13 2 C-13 1.67 -13 1.34 -13 1 C-8.61414671 0.29826347 -4.44209357 -0.10834375 0 0 Z " fill="#14171A" transform="translate(448,572)"/>
<path d="M0 0 C0 0.99 0 1.98 0 3 C-1.98 3.33 -3.96 3.66 -6 4 C-6 3.67 -6 3.34 -6 3 C-7.65 2.67 -9.3 2.34 -11 2 C-11 1.67 -11 1.34 -11 1 C-9.54182203 0.83197949 -8.0834516 0.66562857 -6.625 0.5 C-5.81289063 0.4071875 -5.00078125 0.314375 -4.1640625 0.21875 C-2 0 -2 0 0 0 Z " fill="#202224" transform="translate(446,560)"/>
<path d="M0 0 C0.66 0.33 1.32 0.66 2 1 C2.4140625 3.06640625 2.4140625 3.06640625 2.625 5.5625 C2.69976562 6.38878906 2.77453125 7.21507812 2.8515625 8.06640625 C2.92503906 9.02353516 2.92503906 9.02353516 3 10 C0.22509624 7.44141938 -0.60914295 5.81085622 -1 2 C-0.67 1.34 -0.34 0.68 0 0 Z " fill="#101213" transform="translate(507,659)"/>
<path d="M0 0 C0.66 0 1.32 0 2 0 C2 2.64 2 5.28 2 8 C1.01 8 0.02 8 -1 8 C-0.67 5.36 -0.34 2.72 0 0 Z " fill="#191B1C" transform="translate(619,631)"/>
<path d="M0 0 C0.33 0 0.66 0 1 0 C1 3.3 1 6.6 1 10 C0.01 10 -0.98 10 -2 10 C-2 8.35 -2 6.7 -2 5 C-1.67 5 -1.34 5 -1 5 C-0.67 3.35 -0.34 1.7 0 0 Z " fill="#CDCECD" transform="translate(519,565)"/>
<path d="M0 0 C4.455 0.99 4.455 0.99 9 2 C9 2.66 9 3.32 9 4 C5.7 3.34 2.4 2.68 -1 2 C-0.67 1.34 -0.34 0.68 0 0 Z " fill="#E9E9E9" transform="translate(420,534)"/>
<path d="M0 0 C0 3 0 3 -2 6 C-3.32 5.67 -4.64 5.34 -6 5 C-4.02 3.35 -2.04 1.7 0 0 Z " fill="#121416" transform="translate(560,485)"/>
<path d="M0 0 C0 0.33 0 0.66 0 1 C-3.63 0.67 -7.26 0.34 -11 0 C-11 -0.33 -11 -0.66 -11 -1 C-6.70700357 -2.26264601 -4.12168689 -1.62950412 0 0 Z " fill="#15181A" transform="translate(738,613)"/>
<path d="M0 0 C3.68754757 0.49831724 5.60490662 1.10067643 8 4 C7.01 4.33 6.02 4.66 5 5 C5 4.34 5 3.68 5 3 C2.03 2.505 2.03 2.505 -1 2 C-0.67 1.34 -0.34 0.68 0 0 Z " fill="#141617" transform="translate(455,388)"/>
</svg>
