<?xml version="1.0" encoding="UTF-8"?>
<svg version="1.1" xmlns="http://www.w3.org/2000/svg" width="1024" height="1024">
<path d="M0 0 C337.92 0 675.84 0 1024 0 C1024 337.92 1024 675.84 1024 1024 C686.08 1024 348.16 1024 0 1024 C0 686.08 0 348.16 0 0 Z " fill="#F8F7F3" transform="translate(0,0)"/>
<path d="M0 0 C0.92042587 0.31802078 1.84085175 0.63604156 2.78916931 0.96369934 C4.25272606 1.48790718 4.25272606 1.48790718 5.74584961 2.02270508 C7.89241656 2.76489493 10.03974312 3.50489075 12.18774414 4.24291992 C13.29418274 4.62526794 14.40062134 5.00761597 15.54058838 5.40155029 C20.96340911 7.24385632 26.42659572 8.95192466 31.89428711 10.65551758 C33.53025848 11.16696823 33.53025848 11.16696823 35.19927979 11.68875122 C37.43551038 12.387678 39.67192155 13.08602726 41.9085083 13.78381348 C51.19466336 16.68554055 60.47090976 19.61896149 69.74835205 22.54840088 C72.67319799 23.47124597 75.59887089 24.39142429 78.5246582 25.3112793 C82.497137 26.56246787 86.46369513 27.8306929 90.42532349 29.11581421 C91.8082493 29.56171489 93.19305886 30.0018209 94.57980347 30.43569946 C96.45397115 31.02314761 98.32087978 31.63360961 100.18725586 32.24536133 C101.71406982 32.73504395 101.71406982 32.73504395 103.27172852 33.23461914 C106.62211998 34.90265192 107.89038682 36.36958582 109.89819336 39.54223633 C110.28591976 42.51504999 110.44599925 45.11371319 110.41577148 48.08251953 C110.42278076 48.93227356 110.42979004 49.78202759 110.43701172 50.65753174 C110.4546193 53.46969297 110.44293937 56.28084579 110.42944336 59.09301758 C110.4321422 61.06862071 110.43602787 63.04422255 110.44104004 65.01982117 C110.44694276 69.17349821 110.4383646 73.32683168 110.41967773 77.48046875 C110.39716757 82.73317473 110.41019451 87.98505799 110.4334507 93.23773384 C110.59096471 135.15427887 110.59096471 135.15427887 105.89819336 154.54223633 C105.69471786 155.41764069 105.49124237 156.29304504 105.28160095 157.19497681 C94.32580378 204.10204339 63.7187254 244.29292968 25.89819336 273.54223633 C24.81061228 274.41780284 23.72476593 275.29552717 22.64038086 276.17504883 C-2.25773639 296.24612358 -2.25773639 296.24612358 -12.10180664 295.54223633 C-14.84790039 294.21411133 -14.84790039 294.21411133 -17.53930664 292.29223633 C-19.08618164 291.19588867 -19.08618164 291.19588867 -20.66430664 290.07739258 C-21.81113115 289.23368611 -22.95691173 288.38855937 -24.10180664 287.54223633 C-24.72829102 287.08703613 -25.35477539 286.63183594 -26.00024414 286.1628418 C-47.64068978 270.42968183 -68.54021862 252.64124572 -85.10180664 231.54223633 C-85.91649414 230.52129883 -86.73118164 229.50036133 -87.57055664 228.44848633 C-93.6160721 220.8053361 -99.10512159 212.90949225 -104.10180664 204.54223633 C-104.47692383 203.91929687 -104.85204102 203.29635742 -105.23852539 202.65454102 C-122.28104349 173.87711497 -127.20498816 141.0629099 -127.37524414 108.17504883 C-127.38056782 107.20947933 -127.38589149 106.24390984 -127.3913765 105.24908066 C-127.4179307 100.15344797 -127.43737468 95.05783846 -127.4519043 89.9621582 C-127.46531385 85.75458379 -127.49331967 81.54748626 -127.53393555 77.34008789 C-127.5831664 72.23748806 -127.60801 67.13532457 -127.61513138 62.03249741 C-127.6218451 60.09398483 -127.6370703 58.15548209 -127.66102219 56.21710587 C-127.69257874 53.51262248 -127.69272716 50.8098431 -127.68530273 48.10522461 C-127.70170807 47.30826675 -127.7181134 46.5113089 -127.73501587 45.69020081 C-127.69182564 41.84891118 -127.29161908 39.80179292 -125.0039978 36.6736145 C-121.74313832 34.2788292 -118.93629223 33.10724026 -115.08325195 31.87719727 C-114.39579643 31.65274681 -113.70834091 31.42829636 -113.00005341 31.19704437 C-110.73094584 30.45953605 -108.45568704 29.74331501 -106.17993164 29.02661133 C-104.56834898 28.50663111 -102.95729403 27.9850128 -101.34674072 27.46185303 C-97.97086644 26.36647209 -94.59285877 25.27805012 -91.21337891 24.19384766 C-83.87964803 21.83345342 -76.58034699 19.37090774 -69.27729797 16.91764832 C-64.52484526 15.32467653 -59.76690467 13.74819898 -55.00940704 12.17037201 C-50.9763662 10.83224919 -46.94500878 9.48941467 -42.91674805 8.13696289 C-38.9040365 6.78994418 -34.88760752 5.45461781 -30.86832428 4.12734222 C-29.36635152 3.62914169 -27.86572791 3.12685205 -26.36660004 2.62015533 C-24.29455533 1.92055015 -22.21805621 1.2361083 -20.13989258 0.55493164 C-18.38415924 -0.03031281 -18.38415924 -0.03031281 -16.59295654 -0.62738037 C-10.85519839 -1.992128 -5.62511072 -1.99631722 0 0 Z " fill="#187BCE" transform="translate(247.101806640625,359.457763671875)"/>
<path d="M0 0 C2 2 2 2 2.5625 4.625 C1.69865511 9.80806935 -1.3702112 12.35200156 -5 16 C-5.47147461 16.47840332 -5.94294922 16.95680664 -6.42871094 17.44970703 C-9.46328938 20.52780238 -12.52280255 23.57939702 -15.59960938 26.61523438 C-16.8971941 27.89834116 -18.18721368 29.18908625 -19.4765625 30.48046875 C-21.3127341 32.31379798 -23.15823285 34.13378549 -25.015625 35.9453125 C-31.83562935 42.62797318 -38.09326375 49.48325046 -44 57 C-44.91857719 58.13053074 -45.83926662 59.25934753 -46.76171875 60.38671875 C-65.67446177 83.57685879 -81.90167181 108.81312617 -98 134 C-101.24351061 132.9188298 -101.66636872 132.46619291 -103.56640625 129.82421875 C-104.04650146 129.16752197 -104.52659668 128.5108252 -105.02124023 127.83422852 C-105.52985596 127.12580811 -106.03847168 126.4173877 -106.5625 125.6875 C-110.22615538 120.68778554 -113.92384368 115.78677088 -117.9375 111.0625 C-122.49016684 105.686711 -126.76628839 100.13245636 -131.01855469 94.51708984 C-135.31018755 88.86224738 -139.71647516 83.31006537 -144.21826172 77.82104492 C-148.25836635 72.84566649 -150.58941378 69.57771515 -150.3671875 62.97265625 C-150 61 -150 61 -148.0625 58 C-144.59181206 55.73342828 -142.71382456 55.07493353 -138.62109375 55.34375 C-128.61447967 57.84913177 -119.3363276 66.52001746 -111.17993164 72.60620117 C-110.4502417 73.14607666 -109.72055176 73.68595215 -108.96875 74.2421875 C-108.32357422 74.7254248 -107.67839844 75.20866211 -107.01367188 75.70654297 C-104.76528956 77.15076332 -102.48695003 78.03716839 -100 79 C-99.51664185 78.51442123 -99.03328369 78.02884247 -98.53527832 77.52854919 C-93.47647054 72.44751395 -88.41406378 67.37008467 -83.34960938 62.29467773 C-81.4629887 60.4036151 -79.57785518 58.51110381 -77.69335938 56.61791992 C-74.97505715 53.88740545 -72.25346677 51.16020492 -69.53125 48.43359375 C-68.28075867 47.17536049 -68.28075867 47.17536049 -67.00500488 45.89170837 C-62.16568144 41.05192816 -57.20156682 36.44649696 -52 32 C-50.93952488 31.06332364 -49.88060163 30.12488291 -48.82421875 29.18359375 C-11.84809846 -3.35891085 -11.84809846 -3.35891085 0 0 Z " fill="#F6F7F4" transform="translate(315,426)"/>
<path d="M0 0 C6.6 0 13.2 0 20 0 C21.21816406 2.37574219 22.43632812 4.75148438 23.69140625 7.19921875 C24.89593019 9.54613916 26.10089898 11.89283068 27.3059082 14.23950195 C28.13156679 15.84798819 28.95677592 17.45670523 29.78149414 19.06567383 C34.75429447 28.7664132 39.78154162 38.42875464 45 48 C52.14649749 35.04587706 59.12993912 22.02024188 65.8972168 8.86352539 C66.41968994 7.8502417 66.94216309 6.83695801 67.48046875 5.79296875 C68.17499146 4.43981567 68.17499146 4.43981567 68.88354492 3.05932617 C70 1 70 1 71 0 C77.27 0 83.54 0 90 0 C90 28.38 90 56.76 90 86 C84.39 86 78.78 86 73 86 C72.67 68.51 72.34 51.02 72 33 C70.02 36.83625 68.04 40.6725 66 44.625 C61.20632671 53.87770865 56.3098473 63.03261438 51 72 C47.37 72 43.74 72 40 72 C38.56188473 69.41700772 37.12452001 66.83360158 35.6875 64.25 C35.30271484 63.5590625 34.91792969 62.868125 34.52148438 62.15625 C29.31327464 52.78954722 24.16505104 43.39100189 19 34 C18.67 51.49 18.34 68.98 18 87 C12.06 87 6.12 87 0 87 C0 58.29 0 29.58 0 0 Z " fill="#070C0F" transform="translate(407,588)"/>
<path d="M0 0 C49.74250461 0 49.74250461 0 59.05078125 8.8046875 C65.00981392 15.51606297 66.37615317 22.85451343 66.26953125 31.578125 C65.61270551 39.91695617 62.24761776 45.69004508 56.15234375 51.30859375 C49.79872172 56.30154899 43.5246603 58.14259587 35.48046875 58.09765625 C34.55903076 58.09515869 33.63759277 58.09266113 32.68823242 58.09008789 C31.53299072 58.08098389 30.37774902 58.07187988 29.1875 58.0625 C23.6496875 58.0315625 23.6496875 58.0315625 18 58 C18 67.24 18 76.48 18 86 C12.06 86 6.12 86 0 86 C0 57.62 0 29.24 0 0 Z " fill="#080D10" transform="translate(408,386)"/>
<path d="M0 0 C7.8956794 5.48433597 11.94530398 12.22043084 13.72265625 21.64453125 C14.63474412 30.39057936 13.14464804 38.06965787 9.03515625 45.83203125 C3.07885744 53.07617845 -3.70396358 58.81771932 -13.32128906 59.86767578 C-25.27872665 60.69725877 -34.63900482 59.7019241 -44.15234375 51.89453125 C-50.53008222 45.86610354 -53.35917678 38.92578699 -53.67163086 30.2331543 C-53.84956724 19.83141568 -52.7148048 11.86782584 -45.6015625 3.7265625 C-33.06616032 -7.94432918 -14.40344649 -8.57289182 0 0 Z " fill="#070C0F" transform="translate(577.27734375,413.35546875)"/>
<path d="M0 0 C4.66375839 3.91716921 8.90694634 8.16730489 10.5625 14.1875 C10.5625 16.1675 10.5625 18.1475 10.5625 20.1875 C4.9525 20.1875 -0.6575 20.1875 -6.4375 20.1875 C-7.7575 17.8775 -9.0775 15.5675 -10.4375 13.1875 C-15.68652998 9.11950177 -22.0890672 9.52747142 -28.4375 10.1875 C-32.82469953 11.69003908 -32.82469953 11.69003908 -35.4375 15.1875 C-36.13038846 20.76411285 -36.13038846 20.76411285 -33.625 25.4375 C-27.52619731 28.78586226 -20.95226968 30.71701166 -14.33203125 32.78515625 C-13.41550781 33.07737061 -12.49898438 33.36958496 -11.5546875 33.6706543 C-9.72447793 34.25263163 -7.88992186 34.82116134 -6.05078125 35.37426758 C1.59182204 37.81020522 8.2342558 41.0954376 12.0625 48.4375 C14.66920186 55.41597987 14.6087879 61.55957623 11.5625 68.375 C7.02584551 76.42471841 0.94765044 80.91964415 -7.88671875 83.53515625 C-20.49255506 85.85107997 -34.18942226 85.31768239 -45.36328125 78.66796875 C-50.93992256 74.68765414 -54.32476971 69.64306477 -56.4375 63.1875 C-56.4375 61.2075 -56.4375 59.2275 -56.4375 57.1875 C-50.4975 57.1875 -44.5575 57.1875 -38.4375 57.1875 C-37.1175 59.8275 -35.7975 62.4675 -34.4375 65.1875 C-29.15175813 69.68600372 -24.2907781 69.73872855 -17.47265625 69.51171875 C-12.7548157 69.0077538 -9.9670786 67.56905486 -6.5 64.4375 C-4.8540541 60.9519675 -5.33293167 58.82607802 -6.4375 55.1875 C-11.495892 50.90411699 -17.26826933 49.55878224 -23.5625 47.8125 C-47.55255984 40.79414144 -47.55255984 40.79414144 -53.4375 31.1875 C-55.47696925 25.06909226 -55.65012972 16.84238864 -53.6015625 10.66796875 C-49.09784827 3.00560931 -41.99429996 -2.56071054 -33.4375 -4.8125 C-22.5844124 -7.46547697 -9.26432775 -6.63479111 0 0 Z " fill="#070C0F" transform="translate(458.4375,490.8125)"/>
<path d="M0 0 C5.94 0 11.88 0 18 0 C18.33 10.56 18.66 21.12 19 32 C20.65 30.35 22.3 28.7 24 27 C30.64886453 23.06495773 37.82692652 23.04138371 45.33984375 24.43359375 C51.6082916 26.37067648 54.97155371 30.42621629 58.13476562 35.99926758 C62.52730716 46.03051384 61.43126223 56.97507334 61.25 67.6875 C61.22990479 69.75714418 61.21165937 71.82680719 61.1953125 73.89648438 C61.15155539 78.93146007 61.0826941 83.96551942 61 89 C55.06 89 49.12 89 43 89 C42.94392578 84.66488281 42.94392578 84.66488281 42.88671875 80.2421875 C42.84046072 77.43221623 42.78924261 74.62237591 42.73754883 71.8125 C42.70436735 69.86499032 42.67631443 67.91738603 42.65356445 65.96972656 C42.61989366 63.16430485 42.56757173 60.35974472 42.51171875 57.5546875 C42.50532883 56.68883026 42.4989389 55.82297302 42.49235535 54.93087769 C42.37092695 49.89810157 41.78353474 46.36054721 39 42 C35.11698728 38.76415607 31.9607761 38.54902035 27 39 C22.80704993 40.6131945 21.61000115 42.74273444 19.78991699 46.69897461 C18.44299032 50.6225672 18.39669254 54.41427568 18.390625 58.53125 C18.37408875 59.40777222 18.35755249 60.28429443 18.34051514 61.18737793 C18.29233497 63.95832535 18.27073153 66.72872523 18.25 69.5 C18.22181516 71.39065211 18.19188424 73.28127904 18.16015625 75.171875 C18.08332926 79.78149458 18.04253294 84.38942944 18 89 C12.06 89 6.12 89 0 89 C0 59.63 0 30.26 0 0 Z " fill="#0A0F11" transform="translate(687,586)"/>
<path d="M0 0 C8.49889291 5.03594621 12.29064385 11.12559924 15.25 20.4375 C16.43240326 25.36418026 16.25 29.1386546 16.25 34.4375 C0.74 34.4375 -14.77 34.4375 -30.75 34.4375 C-29.06311874 43.56047082 -29.06311874 43.56047082 -22.75 48.4375 C-17.50282664 50.18655779 -12.55844425 50.10729417 -7.375 48.1875 C-4.66884885 46.68147289 -4.66884885 46.68147289 -3.62890625 44.34375 C-1.3987172 42.08110497 -0.80826944 42.14173805 2.26171875 42.046875 C3.82079139 42.07341241 5.37961831 42.12104401 6.9375 42.1875 C8.13342773 42.21457031 8.13342773 42.21457031 9.35351562 42.2421875 C11.31952449 42.28927753 13.28491494 42.36102101 15.25 42.4375 C12.87293183 49.93360533 9.68450096 54.76933263 3.25 59.4375 C-6.44825052 64.20155289 -17.5526856 65.06010932 -28.0625 62.375 C-36.28416242 59.46766871 -41.8858246 54.32205963 -45.875 46.6484375 C-49.34372411 37.88371496 -49.25492185 25.77939815 -46.7265625 16.8046875 C-42.99916594 8.7526872 -37.29688015 2.19761192 -29.0078125 -1.2421875 C-19.8949626 -4.43455331 -8.71537493 -4.07443778 0 0 Z " fill="#070B0E" transform="translate(635.75,511.5625)"/>
<path d="M0 0 C1.2051123 -0.01546875 1.2051123 -0.01546875 2.43457031 -0.03125 C10.75950279 0.09162723 17.47569247 2.34019684 23.4375 8.4375 C27.77987092 14.66521667 27.9763193 20.54021884 27.828125 27.9375 C27.82246521 29.01378662 27.81680542 30.09007324 27.81097412 31.19897461 C27.78871234 34.61228265 27.73853352 38.02451309 27.6875 41.4375 C27.66742189 43.76170351 27.64917342 46.0859236 27.6328125 48.41015625 C27.58888073 54.08634814 27.51992276 59.76174182 27.4375 65.4375 C22.4875 65.4375 17.5375 65.4375 12.4375 65.4375 C11.9425 61.4775 11.9425 61.4775 11.4375 57.4375 C10.756875 58.365625 10.07625 59.29375 9.375 60.25 C5.43114741 64.84572905 1.89755415 66.21310317 -4.03125 66.75390625 C-12.38230879 67.01278907 -19.75018493 66.7848571 -26.1796875 60.9765625 C-30.27640088 56.41694365 -30.94084831 52.61644888 -30.83984375 46.58984375 C-30.14556413 41.20184279 -27.52269123 37.39769123 -23.75 33.625 C-15.37032194 27.87424055 -7.50380989 27.2789066 2.3125 27.375 C3.19164062 27.37951172 4.07078125 27.38402344 4.9765625 27.38867188 C7.13023803 27.40037663 9.28387817 27.41830931 11.4375 27.4375 C11.18087755 25.99739519 10.90659179 24.5604313 10.625 23.125 C10.47417969 22.32449219 10.32335937 21.52398438 10.16796875 20.69921875 C9.35009229 18.16686328 8.47735393 17.10740561 6.4375 15.4375 C3.24371918 13.84060959 -0.08771315 14.06401043 -3.5625 14.4375 C-7.7857788 16.27370817 -8.43161399 17.17572797 -10.5625 21.4375 C-16.1725 21.4375 -21.7825 21.4375 -27.5625 21.4375 C-26.37798541 13.01428511 -23.50807763 8.26251102 -16.76953125 3.05078125 C-11.49468215 0.05011859 -5.91881945 0.06371663 0 0 Z " fill="#070C0E" transform="translate(507.5625,508.5625)"/>
<path d="M0 0 C6.07720039 3.99257933 9.12786716 9.35809746 11.015625 16.32421875 C11.39827584 19.94672654 11.36699377 23.52866962 11.30859375 27.16796875 C11.30434891 28.17766724 11.30010406 29.18736572 11.29573059 30.22766113 C11.27904714 33.42679432 11.24141403 36.62527858 11.203125 39.82421875 C11.18806482 42.0038971 11.17437875 44.1835854 11.16210938 46.36328125 C11.12917745 51.68384068 11.07746681 57.00392 11.015625 62.32421875 C5.735625 62.32421875 0.455625 62.32421875 -4.984375 62.32421875 C-5.479375 58.36421875 -5.479375 58.36421875 -5.984375 54.32421875 C-6.644375 55.25234375 -7.304375 56.18046875 -7.984375 57.13671875 C-11.88555101 61.72060057 -16.23768903 63.008104 -22.0390625 63.67578125 C-29.78119328 64.02190004 -35.60513568 62.82648958 -41.984375 58.32421875 C-45.90145769 54.31159746 -47.1322342 51.05285705 -47.234375 45.51171875 C-47.14946769 40.19343333 -46.23306073 36.68911562 -42.47265625 32.734375 C-31.93205192 23.04649372 -19.31590917 24.17860733 -5.984375 24.32421875 C-6.64651461 17.61765607 -6.64651461 17.61765607 -10.171875 12.19921875 C-14.77843753 10.76606596 -18.34790113 10.59689703 -22.796875 12.57421875 C-25.35759869 14.37223583 -25.35759869 14.37223583 -26.984375 18.32421875 C-32.594375 18.32421875 -38.204375 18.32421875 -43.984375 18.32421875 C-42.9594875 11.15000628 -41.86175164 8.11938463 -36.796875 3.19921875 C-26.05105706 -3.96465987 -11.98695654 -5.81000444 0 0 Z " fill="#080C0F" transform="translate(552.984375,612.67578125)"/>
<path d="M0 0 C6.6 0 13.2 0 20 0 C21.65445479 4.26823686 23.30863875 8.53657675 24.9621582 12.80517578 C25.52352684 14.25412899 26.08504721 15.70302343 26.64672852 17.15185547 C27.45890577 19.24691183 28.27051813 21.34218631 29.08203125 23.4375 C29.32903275 24.07429687 29.57603424 24.71109375 29.83052063 25.3671875 C31.58517216 29.89989925 33.29917225 34.44681132 35 39 C38.54631483 30.72090569 41.74803285 22.36541215 44.75 13.875 C45.53539788 11.66368557 46.32180301 9.45272854 47.109375 7.2421875 C47.61936035 5.80141846 47.61936035 5.80141846 48.13964844 4.33154297 C49 2 49 2 50 0 C55.94 0 61.88 0 68 0 C65.29568224 9.90570326 61.45307667 19.33739958 57.6875 28.875 C56.61589115 31.60105668 55.54552166 34.3275981 54.47514343 37.05413818 C53.74460965 38.91456191 53.01357824 40.77479031 52.28205872 42.63482666 C49.79136138 48.97059257 47.32210216 55.31435244 44.8671875 61.6640625 C44.54291275 62.50202362 44.218638 63.33998474 43.88453674 64.20333862 C42.63677726 67.42792031 41.38906828 70.65251198 40.14584351 73.87884521 C39.29878358 76.07639183 38.44855795 78.27268869 37.59765625 80.46875 C37.34736664 81.12090485 37.09707703 81.77305969 36.83920288 82.44497681 C35.11375919 86.88624081 35.11375919 86.88624081 34 88 C32.65732587 88.08631874 31.31025678 88.10706473 29.96484375 88.09765625 C29.15595703 88.09443359 28.34707031 88.09121094 27.51367188 88.08789062 C26.66353516 88.07951172 25.81339844 88.07113281 24.9375 88.0625 C24.08349609 88.05798828 23.22949219 88.05347656 22.34960938 88.04882812 C20.23304337 88.03700373 18.11651315 88.01906769 16 88 C16.31022095 87.15405273 16.31022095 87.15405273 16.62670898 86.29101562 C17.57234441 83.69709065 18.50497345 81.09866499 19.4375 78.5 C19.76298828 77.613125 20.08847656 76.72625 20.42382812 75.8125 C20.73642578 74.9359375 21.04902344 74.059375 21.37109375 73.15625 C21.65911865 72.36025391 21.94714355 71.56425781 22.24389648 70.74414062 C24.20630624 63.6219302 24.22826125 58.99240644 21.38671875 52.15234375 C21.10126694 51.42590668 20.81581512 50.6994696 20.52171326 49.95101929 C19.59450199 47.60574867 18.64177384 45.27187376 17.6875 42.9375 C17.04355404 41.32559483 16.40081957 39.71320517 15.75927734 38.1003418 C10.99139369 26.1768072 5.98830728 14.35421817 0.69580078 2.65356445 C0 1 0 1 0 0 Z " fill="#070C0F" transform="translate(704,510)"/>
<path d="M0 0 C6.91456162 4.75024762 11.38748028 9.13355061 13.921875 17.3203125 C13.921875 17.9803125 13.921875 18.6403125 13.921875 19.3203125 C11.00497239 19.65041465 8.09513793 19.93526764 5.171875 20.1953125 C4.346875 20.29328125 3.521875 20.39125 2.671875 20.4921875 C0.28641891 20.68456299 -1.72796222 20.78509202 -4.078125 20.3203125 C-6.53125 17.390625 -6.53125 17.390625 -8.078125 14.3203125 C-12.0061309 12.35630955 -16.78599538 12.98489282 -21.078125 13.3203125 C-24.66585314 14.66571055 -25.69129205 15.68817086 -27.6796875 18.9375 C-29.28934863 22.83126128 -29.52316702 26.18005081 -29.453125 30.3203125 C-29.46472656 31.00609375 -29.47632813 31.691875 -29.48828125 32.3984375 C-29.45600949 38.0352377 -28.24602565 42.11511463 -24.26171875 46.16796875 C-19.87645721 48.48219443 -14.88122654 47.923981 -10.078125 47.3203125 C-6.39881772 45.22815738 -5.4076316 44.30883231 -4.078125 40.3203125 C1.861875 40.3203125 7.801875 40.3203125 13.921875 40.3203125 C12.67982959 49.01463038 9.76685037 53.29378885 3.171875 58.7734375 C-4.5448912 64.07871426 -14.02677107 64.23585175 -23.078125 63.3203125 C-32.02864343 61.24911815 -38.90288969 55.91775104 -43.953125 48.3203125 C-49.14091431 39.90375922 -49.61965387 28.85429282 -47.390625 19.40625 C-44.06184857 10.44629343 -38.80470295 3.45902043 -30.078125 -0.6796875 C-21.27348617 -4.25696565 -8.46497765 -4.6918287 0 0 Z " fill="#090D10" transform="translate(666.078125,612.6796875)"/>
<path d="M0 0 C1.93359375 0.00966797 1.93359375 0.00966797 3.90625 0.01953125 C7.5 0.1875 7.5 0.1875 12.5 1.1875 C12.5 5.4775 12.5 9.7675 12.5 14.1875 C10.39625 14.290625 8.2925 14.39375 6.125 14.5 C2.61610554 14.60157366 2.61610554 14.60157366 -0.5 15.1875 C-2.52350324 18.22275486 -2.82124018 19.38176202 -3.125 22.875 C-3.24875 24.298125 -3.3725 25.72125 -3.5 27.1875 C1.78 27.1875 7.06 27.1875 12.5 27.1875 C12.5 31.4775 12.5 35.7675 12.5 40.1875 C7.22 40.1875 1.94 40.1875 -3.5 40.1875 C-3.5 57.0175 -3.5 73.8475 -3.5 91.1875 C-9.44 91.1875 -15.38 91.1875 -21.5 91.1875 C-21.5 74.3575 -21.5 57.5275 -21.5 40.1875 C-24.8 40.1875 -28.1 40.1875 -31.5 40.1875 C-31.5 35.8975 -31.5 31.6075 -31.5 27.1875 C-28.2 27.1875 -24.9 27.1875 -21.5 27.1875 C-21.54640625 26.341875 -21.5928125 25.49625 -21.640625 24.625 C-21.8648672 17.5773881 -21.88195059 11.94948048 -17.5 6.1875 C-12.15660842 0.98111846 -7.34144767 -0.08075592 0 0 Z " fill="#0A0F12" transform="translate(572.5,482.8125)"/>
<path d="M0 0 C5.61 0 11.22 0 17 0 C17 5.94 17 11.88 17 18 C22.28 18 27.56 18 33 18 C33 22.29 33 26.58 33 31 C27.72 31 22.44 31 17 31 C17.07397697 35.78809579 17.15677538 40.57431395 17.26245117 45.36157227 C17.29570536 46.99005409 17.32373584 48.61865131 17.34643555 50.24731445 C17.37997357 52.58855361 17.43228585 54.92873486 17.48828125 57.26953125 C17.49467117 57.99775589 17.5010611 58.72598053 17.50764465 59.47627258 C17.62260874 63.45376196 17.62260874 63.45376196 19.34960938 66.95117188 C21.880487 68.5595521 24.22498975 68.52822526 27.1875 68.6875 C29.105625 68.790625 31.02375 68.89375 33 69 C33 73.29 33 77.58 33 82 C29.99900412 82.10890711 27.00203622 82.18773555 24 82.25 C23.16082031 82.28351563 22.32164062 82.31703125 21.45703125 82.3515625 C14.60575493 82.45778384 9.18314666 81.08177256 4.16015625 76.21875 C3.61681641 75.36796875 3.61681641 75.36796875 3.0625 74.5 C2.49208984 73.64921875 2.49208984 73.64921875 1.91015625 72.78125 C-0.37893983 68.3013023 -0.13077023 63.65411042 -0.09765625 58.734375 C-0.0962413 57.94097717 -0.09482635 57.14757935 -0.09336853 56.33013916 C-0.08778415 53.80338728 -0.07523454 51.27672496 -0.0625 48.75 C-0.05748298 47.03385545 -0.05292043 45.31770951 -0.04882812 43.6015625 C-0.03781984 39.40100731 -0.02056596 35.20051883 0 31 C-3.3 31 -6.6 31 -10 31 C-10 26.71 -10 22.42 -10 18 C-6.7 18 -3.4 18 0 18 C0 12.06 0 6.12 0 0 Z " fill="#060B0D" transform="translate(665,492)"/>
<path d="M0 0 C5.61 0 11.22 0 17 0 C17 5.94 17 11.88 17 18 C22.28 18 27.56 18 33 18 C33 22.29 33 26.58 33 31 C27.72 31 22.44 31 17 31 C17.07405864 35.62738836 17.15693041 40.2528631 17.26245117 44.87939453 C17.29566372 46.45253522 17.32370717 48.02579401 17.34643555 49.59912109 C17.38005028 51.86346672 17.43236624 54.12673365 17.48828125 56.390625 C17.49467117 57.09181458 17.5010611 57.79300415 17.50764465 58.51544189 C17.62923871 62.57212403 17.99313224 65.1532613 21 68 C25.00991576 68.83741213 28.88864287 68.82316744 33 69 C33 73.29 33 77.58 33 82 C12.07430065 82.6420385 12.07430065 82.6420385 6.26953125 77.453125 C0.78778962 71.56773969 -0.30668257 65.68355872 -0.1953125 57.7578125 C-0.1924826 56.98944061 -0.18965271 56.22106873 -0.18673706 55.42941284 C-0.17561311 52.99444479 -0.1505236 50.55985538 -0.125 48.125 C-0.11496011 46.46615118 -0.10583603 44.80729654 -0.09765625 43.1484375 C-0.07569937 39.09881421 -0.04122406 35.04947113 0 31 C-3.3 31 -6.6 31 -10 31 C-10 26.71 -10 22.42 -10 18 C-6.7 18 -3.4 18 0 18 C0 12.06 0 6.12 0 0 Z " fill="#060B0E" transform="translate(579,593)"/>
<path d="M0 0 C0 5.61 0 11.22 0 17 C-2.784375 17.37125 -2.784375 17.37125 -5.625 17.75 C-10.6323349 18.60519854 -14.2171487 19.41114107 -18 23 C-20.72580633 28.25406665 -21.4603197 32.47229138 -21.51171875 38.33984375 C-21.52966995 39.10680069 -21.54762115 39.87375763 -21.56611633 40.66395569 C-21.6198448 43.08841626 -21.65399275 45.51268432 -21.6875 47.9375 C-21.72070634 49.59182346 -21.75519902 51.24612162 -21.79101562 52.90039062 C-21.87794729 56.93361566 -21.93833097 60.96599504 -22 65 C-27.61 65 -33.22 65 -39 65 C-39 44.21 -39 23.42 -39 2 C-33.39 2 -27.78 2 -22 2 C-21.67 4.31 -21.34 6.62 -21 9 C-20.49210937 8.51789063 -19.98421875 8.03578125 -19.4609375 7.5390625 C-12.85088586 1.47365931 -9.24595431 0 0 0 Z " fill="#060A0D" transform="translate(521,407)"/>
<path d="M0 0 C3.94298232 1.68134718 5.69203073 4.48671788 7.875 8.125 C10.12310875 14.26715425 9.82480506 21.27409706 7.8125 27.4375 C5.40116884 32.17701297 3.01981086 34.32672971 -2 36 C-8.8226832 36.72759384 -13.52088627 36.24910861 -19 32 C-22.94175422 25.69319325 -23.78022019 19.3186852 -23 12 C-21.70392426 7.6599978 -19.71185769 4.73011045 -16.5625 1.5 C-11.07078729 -0.81230009 -5.86435691 -0.85055558 0 0 Z " fill="#F6F6F2" transform="translate(564,423)"/>
<path d="M0 0 C3.34125 -0.0825 6.6825 -0.165 10.125 -0.25 C11.16672363 -0.28641602 12.20844727 -0.32283203 13.28173828 -0.36035156 C19.21140023 -0.43106498 22.48422605 0.07040825 27 4 C30.16362778 7.69089908 30.51601311 11.07818093 30.359375 15.78515625 C29.61661504 20.3628182 26.51368287 24.09739242 23 27 C20.11734851 27.96088383 18.32337729 28.11670941 15.33203125 28.09765625 C14.52741455 28.09515869 13.72279785 28.09266113 12.89379883 28.09008789 C11.36855591 28.07643188 11.36855591 28.07643188 9.8125 28.0625 C4.9553125 28.0315625 4.9553125 28.0315625 0 28 C0 18.76 0 9.52 0 0 Z " fill="#F9F7F4" transform="translate(426,401)"/>
<path d="M0 0 C1.03253906 0.01353516 1.03253906 0.01353516 2.0859375 0.02734375 C3.76577838 0.05067487 5.44543746 0.08653674 7.125 0.125 C6.39368994 6.35960295 5.12623594 10.47006052 0.296875 14.7421875 C-3.44975397 17.12763112 -7.50572322 17.26640054 -11.875 17.125 C-14.43158406 15.97714593 -15.93383196 15.06616804 -17.875 13.125 C-18.45721369 6.95353487 -18.45721369 6.95353487 -16.25 3.8125 C-11.17243202 0.20475433 -6.06341957 -0.15276057 0 0 Z " fill="#F4F3F1" transform="translate(511.875,545.875)"/>
<path d="M0 0 C1.89492188 0.01353516 1.89492188 0.01353516 3.828125 0.02734375 C4.79234375 0.03894531 5.7565625 0.05054688 6.75 0.0625 C6.53951496 6.06132371 5.55020827 9.29685881 1.34765625 13.6484375 C-1.5256749 16.19158145 -3.60418757 17.07123883 -7.45703125 17.05078125 C-13.54171358 16.60843762 -13.54171358 16.60843762 -15.98828125 14.72265625 C-17.25 13.0625 -17.25 13.0625 -17.8125 9.6875 C-17.25 6.0625 -17.25 6.0625 -14.5 3.1875 C-9.51400832 -0.07257149 -5.93792502 -0.05498079 0 0 Z " fill="#F3F3F1" transform="translate(540.25,646.9375)"/>
<path d="M0 0 C4.32146998 3.79446144 5.40192136 5.44710678 6.5625 11.25 C-3.3375 11.25 -13.2375 11.25 -23.4375 11.25 C-22.2375 4.05 -22.2375 4.05 -18.4375 0.25 C-12.90739413 -3.16565363 -5.62010059 -2.86114212 0 0 Z " fill="#F7F6F5" transform="translate(628.4375,523.75)"/>
<path d="M0 0 C0.66 0 1.32 0 2 0 C2 28.05 2 56.1 2 85 C6.62 84.67 11.24 84.34 16 84 C16 66.84 16 49.68 16 32 C16.66 32.33 17.32 32.66 18 33 C18 50.82 18 68.64 18 87 C12.06 87 6.12 87 0 87 C0 58.29 0 29.58 0 0 Z " fill="#1F2121" transform="translate(407,588)"/>
<path d="M0 0 C-2.99821602 1.99881068 -6.00567886 3.47519009 -9.2578125 5 C-11.17349174 5.88607209 -11.17349174 5.88607209 -12 8 C-12.10366913 10.71738996 -12.14680654 13.40933671 -12.14526367 16.12719727 C-12.14862228 16.96825012 -12.1519809 17.80930298 -12.15544128 18.67584229 C-12.164981 21.4727118 -12.16689707 24.26952144 -12.16796875 27.06640625 C-12.17118341 29.01822433 -12.17454764 30.97004217 -12.17805481 32.92185974 C-12.18405651 37.02855994 -12.18589406 41.13523908 -12.18530273 45.24194336 C-12.185202 50.45965729 -12.19875637 55.67723239 -12.21607494 60.89491367 C-12.22730447 64.93687027 -12.22921848 68.97879472 -12.22869301 73.0207653 C-12.22986047 74.94094247 -12.23421145 76.86112081 -12.24202538 78.78128242 C-12.28587715 90.68885161 -11.64235986 102.20680256 -10 114 C-9.7845249 115.85335029 -9.57473207 117.70738709 -9.375 119.5625 C-9.189375 121.2640625 -9.189375 121.2640625 -9 123 C-9.33 122.34 -9.66 121.68 -10 121 C-10.66 121 -11.32 121 -12 121 C-14.54568593 108.9222724 -14.32768527 96.84267904 -14.3359375 84.55859375 C-14.34237378 82.29989032 -14.34910274 80.0411877 -14.35610962 77.78248596 C-14.36802082 73.07494164 -14.37179608 68.36747042 -14.37060547 63.65991211 C-14.37040095 57.62388764 -14.39786695 51.58832698 -14.43214989 45.55241299 C-14.45434445 40.90021087 -14.45844554 36.24812253 -14.45738602 31.59587288 C-14.45974689 29.36908408 -14.46859766 27.14229238 -14.48405075 24.91555595 C-14.50358864 21.81372711 -14.49792393 18.71292847 -14.48583984 15.61108398 C-14.49707886 14.69211334 -14.50831787 13.7731427 -14.51989746 12.82632446 C-14.45823451 6.61550294 -14.45823451 6.61550294 -12.12197876 3.47743225 C-8.11060089 0.68450183 -4.88420342 -0.27909734 0 0 Z " fill="#E4FCFE" transform="translate(133,391)"/>
<path d="M0 0 C2.14782833 3.22174249 2.24649148 4.0433731 2.22705078 7.74682617 C2.22682419 9.18798042 2.22682419 9.18798042 2.22659302 10.6582489 C2.21627045 11.69270645 2.20594788 12.727164 2.1953125 13.79296875 C2.1924826 14.85413406 2.18965271 15.91529938 2.18673706 17.00862122 C2.17553184 20.40169497 2.15042647 23.79450587 2.125 27.1875 C2.11497065 29.48632432 2.10584472 31.78515276 2.09765625 34.08398438 C2.07559136 39.72275771 2.04105901 45.36133427 2 51 C-2.95 51 -7.9 51 -13 51 C-13 50.34 -13 49.68 -13 49 C-8.71 49 -4.42 49 0 49 C0 32.83 0 16.66 0 0 Z " fill="#E1E1DF" transform="translate(535,525)"/>
<path d="M0 0 C2 3 2 3 2 11 C-13.18 11 -28.36 11 -44 11 C-43.67 10.34 -43.34 9.68 -43 9 C-29.47 9 -15.94 9 -2 9 C-1.34 6.03 -0.68 3.06 0 0 Z " fill="#020404" transform="translate(650,535)"/>
<path d="M0 0 C2.97855356 2.97855356 2.35625184 6.29024823 2.4140625 10.2890625 C2.43342865 11.10748627 2.4527948 11.92591003 2.4727478 12.76913452 C2.53261082 15.38764976 2.57895532 18.00620881 2.625 20.625 C2.66317364 22.39845686 2.70222501 24.17189505 2.7421875 25.9453125 C2.83831771 30.29672375 2.92232351 34.64822179 3 39 C7.95 39.33 12.9 39.66 18 40 C18 40.33 18 40.66 18 41 C12.06 41 6.12 41 0 41 C0 27.47 0 13.94 0 0 Z " fill="#272929" transform="translate(730,634)"/>
<path d="M0 0 C0.33 0 0.66 0 1 0 C1 15.18 1 30.36 1 46 C-4.28 46 -9.56 46 -15 46 C-15 43.36 -15 40.72 -15 38 C-14.34 38.33 -13.68 38.66 -13 39 C-13 40.65 -13 42.3 -13 44 C-9.04 44 -5.08 44 -1 44 C-0.67 29.48 -0.34 14.96 0 0 Z " fill="#343536" transform="translate(563,629)"/>
<path d="M0 0 C5.61 0 11.22 0 17 0 C17.33 6.27 17.66 12.54 18 19 C17.01 19 16.02 19 15 19 C15 13.72 15 8.44 15 3 C10.71 3 6.42 3 2 3 C1.67 7.95 1.34 12.9 1 18 C0.67 18 0.34 18 0 18 C0 12.06 0 6.12 0 0 Z " fill="#101313" transform="translate(579,593)"/>
<path d="M0 0 C0.66 0.33 1.32 0.66 2 1 C1.34 1.474375 0.68 1.94875 0 2.4375 C-2.47506086 5.60867173 -2.87810582 7.46696645 -2.71484375 11.4375 C-1.18410919 16.92472332 3.26080772 20.86560853 7 25 C8.20864113 26.50408673 9.39943318 28.02290075 10.5625 29.5625 C11.03816406 30.18253906 11.51382813 30.80257812 12.00390625 31.44140625 C13 33 13 33 13 35 C13.66 35 14.32 35 15 35 C15.66 36.32 16.32 37.64 17 39 C16.01 39 15.02 39 14 39 C12.29908595 37.09968928 10.80827729 35.24028583 9.3125 33.1875 C8.87623291 32.60379639 8.43996582 32.02009277 7.99047852 31.41870117 C6.65027471 29.61965371 5.32424113 27.81081815 4 26 C3.20085302 24.91902517 2.40139128 23.83828295 1.6015625 22.7578125 C-5.38977242 13.24252995 -5.38977242 13.24252995 -5.3671875 7.04296875 C-4.75971839 3.66311404 -2.5833196 2.06665568 0 0 Z " fill="#DEF7FD" transform="translate(170,482)"/>
<path d="M0 0 C13.2 0 26.4 0 40 0 C39.67 0.99 39.34 1.98 39 3 C25.8 3 12.6 3 -1 3 C-0.67 2.01 -0.34 1.02 0 0 Z " fill="#C6C6C4" transform="translate(408,383)"/>
<path d="M0 0 C0.66 0 1.32 0 2 0 C2 3.63 2 7.26 2 11 C3.918125 10.938125 3.918125 10.938125 5.875 10.875 C8.0546875 10.8046875 8.0546875 10.8046875 10 11 C12 13 12 13 12.13525391 16.43994141 C12.09290249 17.91082326 12.03923454 19.38140629 11.9765625 20.8515625 C11.95153656 21.62559418 11.92651062 22.39962585 11.90072632 23.19711304 C11.81844085 25.67351533 11.72188604 28.14913007 11.625 30.625 C11.56676906 32.30205098 11.5094656 33.97913445 11.453125 35.65625 C11.31284966 39.77128769 11.15977348 43.88567508 11 48 C10.67 48 10.34 48 10 48 C10 36.45 10 24.9 10 13 C6.7 13 3.4 13 0 13 C0 8.71 0 4.42 0 0 Z " fill="#202222" transform="translate(569,611)"/>
<path d="M0 0 C0 0.99 0 1.98 0 3 C-1.98 3.99 -1.98 3.99 -4 5 C-2.68 3.35 -1.36 1.7 0 0 Z M-6 5 C-5.34 5.33 -4.68 5.66 -4 6 C-9.43014768 11.88057467 -14.99274347 16.9865804 -21.5 21.625 C-22.11117676 22.06247559 -22.72235352 22.49995117 -23.35205078 22.95068359 C-27.72907759 26 -27.72907759 26 -30 26 C-30 26.66 -30 27.32 -30 28 C-30.99 28.66 -31.98 29.32 -33 30 C-33.99 29.67 -34.98 29.34 -36 29 C-35.24976563 28.443125 -34.49953125 27.88625 -33.7265625 27.3125 C-24.19416832 20.20522374 -14.87043684 12.92888209 -6 5 Z " fill="#E2F8FD" transform="translate(288,619)"/>
<path d="M0 0 C0.33 0 0.66 0 1 0 C1.33 11.22 1.66 22.44 2 34 C0.68 34 -0.64 34 -2 34 C-2.049377 29.47934572 -2.08570823 24.95884783 -2.10986328 20.43798828 C-2.11993118 18.89954902 -2.13358646 17.36112893 -2.15087891 15.82275391 C-2.17509317 13.61355867 -2.18647491 11.40461605 -2.1953125 9.1953125 C-2.20563507 8.50567413 -2.21595764 7.81603577 -2.22659302 7.10549927 C-2.22699478 5.40199094 -2.12191026 3.69914057 -2 2 C-1.34 1.34 -0.68 0.68 0 0 Z " fill="#313434" transform="translate(704,586)"/>
<path d="M0 0 C0.33 0.99 0.66 1.98 1 3 C0.3503125 3.5878125 0.3503125 3.5878125 -0.3125 4.1875 C-2.14560261 6.02238902 -2.14560261 6.02238902 -3.5625 8.6875 C-4.036875 9.450625 -4.51125 10.21375 -5 11 C-5.66 11 -6.32 11 -7 11 C-7.2475 11.5775 -7.495 12.155 -7.75 12.75 C-9.93188824 16.67739884 -12.03400287 18.62846264 -16.25 20.25 C-17.1575 20.4975 -18.065 20.745 -19 21 C-14.70140651 15.79643946 -10.10107813 11.04483043 -5.26953125 6.33203125 C-3.30380709 4.31217355 -1.62208151 2.29838912 0 0 Z " fill="#E5F7FD" transform="translate(310,596)"/>
<path d="M0 0 C0.66 0 1.32 0 2 0 C2.33 1.32 2.66 2.64 3 4 C-6.9 4 -16.8 4 -27 4 C-26.67 3.01 -26.34 2.02 -26 1 C-17.42 1 -8.84 1 0 1 C0 0.67 0 0.34 0 0 Z " fill="#FDFDFD" transform="translate(632,531)"/>
<path d="M0 0 C3.90413139 3.79648071 7.47853833 7.78592907 11 11.9375 C11.76183594 12.82985352 11.76183594 12.82985352 12.5390625 13.74023438 C15.71964411 17.47130126 18.8675854 21.22843462 22 25 C13.13699785 21.25965047 5.1803686 10.88631532 0 3 C0 2.01 0 1.02 0 0 Z " fill="#E0F8FD" transform="translate(158,586)"/>
<path d="M0 0 C-4.21367739 1.45397528 -8.43116264 2.89611461 -12.65258789 4.32739258 C-14.08826551 4.81601305 -15.5228498 5.30785827 -16.95629883 5.80297852 C-19.01625498 6.51387373 -21.07985732 7.21310076 -23.14453125 7.91015625 C-24.38565674 8.33433838 -25.62678223 8.75852051 -26.90551758 9.19555664 C-30 10 -30 10 -33 9 C-29.6708399 7.65605627 -26.33605192 6.32672958 -23 5 C-21.99839844 4.59007812 -21.99839844 4.59007812 -20.9765625 4.171875 C-5.6824422 -1.8941474 -5.6824422 -1.8941474 0 0 Z " fill="#E1F8FD" transform="translate(191,373)"/>
<path d="M0 0 C18.37055838 11.37055838 18.37055838 11.37055838 24 17 C22.02 17 20.04 17 18 17 C17.938125 16.38125 17.87625 15.7625 17.8125 15.125 C17.544375 14.42375 17.27625 13.7225 17 13 C15.33600587 12.32669043 13.66873937 11.66146136 12 11 C10.04647399 9.7430181 8.13011045 8.42685042 6.25 7.0625 C5.28578125 6.37285156 4.3215625 5.68320312 3.328125 4.97265625 C1 3 1 3 0 0 Z " fill="#DEF4FC" transform="translate(191,490)"/>
<path d="M0 0 C0.66 0 1.32 0 2 0 C4.11161731 17.85649203 4.11161731 17.85649203 5 26 C4.67 25.34 4.34 24.68 4 24 C3.34 24 2.68 24 2 24 C0.56205146 15.92437827 -0.29599372 8.2056037 0 0 Z " fill="#DAF3FC" transform="translate(119,488)"/>
<path d="M0 0 C2.475 0.495 2.475 0.495 5 1 C4.01 1.66 3.02 2.32 2 3 C1.63702064 4.97747122 1.63702064 4.97747122 1.8125 7.125 C1.9053125 9.043125 1.9053125 9.043125 2 11 C4.64 11 7.28 11 10 11 C10.33 11.66 10.66 12.32 11 13 C7.37 13 3.74 13 0 13 C0 8.71 0 4.42 0 0 Z " fill="#010303" transform="translate(655,510)"/>
<path d="M0 0 C0.33 0 0.66 0 1 0 C1 10.56 1 21.12 1 32 C1.99 32.33 2.98 32.66 4 33 C4 33.66 4 34.32 4 35 C2.02 35.495 2.02 35.495 0 36 C-1.53937439 32.92125123 -1.00296786 29.73263303 -0.87890625 26.3671875 C-0.84348976 25.23943405 -0.84348976 25.23943405 -0.80735779 24.08889771 C-0.7306938 21.68407434 -0.64668156 19.27957082 -0.5625 16.875 C-0.50928203 15.24610948 -0.45654161 13.61720328 -0.40429688 11.98828125 C-0.27507502 7.9919844 -0.13926173 3.99595908 0 0 Z " fill="#EDEEEC" transform="translate(684,524)"/>
<path d="M0 0 C5.45454545 0.45454545 5.45454545 0.45454545 8 3 C8.5625 5.625 8.5625 5.625 8 9 C5.90380782 11.90644103 3.52480982 14.4623085 1 17 C0.67 16.01 0.34 15.02 0 14 C1.2375 12.948125 1.2375 12.948125 2.5 11.875 C5.30423396 9.21372773 5.30423396 9.21372773 5.3125 5.6875 C5.209375 4.800625 5.10625 3.91375 5 3 C2.69 2.67 0.38 2.34 -2 2 C-1.34 1.34 -0.68 0.68 0 0 Z " fill="#D9F6FD" transform="translate(309,425)"/>
<path d="M0 0 C6.6 0 13.2 0 20 0 C20.66 2.31 21.32 4.62 22 7 C21.34 7 20.68 7 20 7 C19.67 5.35 19.34 3.7 19 2 C13.72 2 8.44 2 3 2 C2.67 2.66 2.34 3.32 2 4 C1.34 2.68 0.68 1.36 0 0 Z " fill="#010202" transform="translate(704,510)"/>
<path d="M0 0 C0.66 0.33 1.32 0.66 2 1 C1.505 1.556875 1.01 2.11375 0.5 2.6875 C-1.24754367 5.38162983 -1.26218749 6.85375007 -1 10 C-2.98 10 -4.96 10 -7 10 C-5.76075855 5.04303419 -4.21422242 2.88341534 0 0 Z " fill="#EEEEED" transform="translate(612,523)"/>
<path d="M0 0 C6.81520452 0.29631324 11.38350782 3.30464197 17 7 C16.67 7.66 16.34 8.32 16 9 C15.34 9 14.68 9 14 9 C14 8.34 14 7.68 14 7 C12.824375 6.814375 12.824375 6.814375 11.625 6.625 C9 6 9 6 7 4 C4.93125966 3.3574765 4.93125966 3.3574765 3 3 C3 2.34 3 1.68 3 1 C2.01 0.67 1.02 0.34 0 0 Z " fill="#DCF3FA" transform="translate(174,482)"/>
<path d="M0 0 C0.33 0.99 0.66 1.98 1 3 C-0.52984497 5.32287873 -2.06606252 7.414311 -3.8125 9.5625 C-4.27720703 10.15224609 -4.74191406 10.74199219 -5.22070312 11.34960938 C-7.06104435 13.67049881 -8.90424247 15.90424247 -11 18 C-10.55239601 12.92715484 -8.22802538 10.71222918 -5 7 C-4.67 6.01 -4.34 5.02 -4 4 C-3.34 4 -2.68 4 -2 4 C-1.34 2.68 -0.68 1.36 0 0 Z " fill="#DEF5FD" transform="translate(257,497)"/>
<path d="M0 0 C3.375 -0.1875 3.375 -0.1875 7 0 C7.66 0.99 8.32 1.98 9 3 C8.25234375 3.06058594 7.5046875 3.12117188 6.734375 3.18359375 C5.74953125 3.26738281 4.7646875 3.35117187 3.75 3.4375 C2.77546875 3.51871094 1.8009375 3.59992188 0.796875 3.68359375 C-1.56461753 3.95074584 -3.71901065 4.35371968 -6 5 C-6 4.34 -6 3.68 -6 3 C-5.34 3 -4.68 3 -4 3 C-4 2.34 -4 1.68 -4 1 C-2.68 1.33 -1.36 1.66 0 2 C0 1.34 0 0.68 0 0 Z " fill="#121414" transform="translate(432,497)"/>
<path d="M0 0 C0.66 0.33 1.32 0.66 2 1 C0.23000902 2.93827536 -1.54095761 4.87564344 -3.3125 6.8125 C-3.81201172 7.35970703 -4.31152344 7.90691406 -4.82617188 8.47070312 C-7.16943128 11.03121837 -9.51144854 13.57939534 -12 16 C-11.14590173 11.49580017 -8.52252531 8.96982667 -5.4375 5.75 C-4.91736328 5.19570313 -4.39722656 4.64140625 -3.86132812 4.0703125 C-2.58069015 2.70743172 -1.2911951 1.35288317 0 0 Z " fill="#DEF7FD" transform="translate(283,466)"/>
<path d="M0 0 C1.6852084 4.07679159 0.16939007 6.83075593 -1.4375 10.75 C-1.91058594 11.92046875 -2.38367188 13.0909375 -2.87109375 14.296875 C-3.24363281 15.18890625 -3.61617187 16.0809375 -4 17 C-4.66 17 -5.32 17 -6 17 C-5.67 14.69 -5.34 12.38 -5 10 C-4.34 10 -3.68 10 -3 10 C-2.67 7.36 -2.34 4.72 -2 2 C-1.34 2 -0.68 2 0 2 C0 1.34 0 0.68 0 0 Z " fill="#121313" transform="translate(754,552)"/>
<path d="M0 0 C4.82360189 -0.19294408 8.49646738 0.24252386 13 2 C13 2.66 13 3.32 13 4 C14.65 4 16.3 4 18 4 C18 4.66 18 5.32 18 6 C11.82777121 4.75971762 5.93317878 3.10396411 0 1 C0 0.67 0 0.34 0 0 Z " fill="#D8F3FC" transform="translate(332,387)"/>
<path d="M0 0 C0.33 0 0.66 0 1 0 C1.19436491 2.45796853 1.3807742 4.91609294 1.5625 7.375 C1.61857422 8.07367187 1.67464844 8.77234375 1.73242188 9.4921875 C2.11328125 14.7734375 2.11328125 14.7734375 1 17 C2.65 17 4.3 17 6 17 C5.34 17.33 4.68 17.66 4 18 C4 18.66 4 19.32 4 20 C0.125 18.25 0.125 18.25 -1 16 C-0.91075148 13.2764805 -0.76646668 10.58986689 -0.5625 7.875 C-0.51029297 7.12089844 -0.45808594 6.36679687 -0.40429688 5.58984375 C-0.27454996 3.7262063 -0.13792512 1.86305004 0 0 Z " fill="#F1F1EF" transform="translate(598,642)"/>
<path d="M0 0 C0.66 0.33 1.32 0.66 2 1 C-0.31 4.63 -2.62 8.26 -5 12 C-5.99 11.67 -6.98 11.34 -8 11 C-8 10.34 -8 9.68 -8 9 C-7.01 9 -6.02 9 -5 9 C-4.9175 8.443125 -4.835 7.88625 -4.75 7.3125 C-3.77389987 4.30285794 -2.04811186 2.37845248 0 0 Z " fill="#DEF6FD" transform="translate(222,548)"/>
<path d="M0 0 C0.33 0 0.66 0 1 0 C1.75 2.6875 1.75 2.6875 2 6 C0.1875 8.6875 0.1875 8.6875 -2 11 C-2.66 11.99 -3.32 12.98 -4 14 C-5.305239 10.08428299 -4.32239848 8.96107003 -2.5625 5.3125 C-2.08941406 4.31863281 -1.61632812 3.32476563 -1.12890625 2.30078125 C-0.75636719 1.54152344 -0.38382812 0.78226563 0 0 Z " fill="#E3F6FD" transform="translate(344,542)"/>
<path d="M0 0 C0 0.66 0 1.32 0 2 C-4.08430208 4.72286806 -6.14590877 4.38524534 -11 4 C-11.66 3.01 -12.32 2.02 -13 1 C-12.06027344 1.01740234 -12.06027344 1.01740234 -11.1015625 1.03515625 C-9.87566406 1.04869141 -9.87566406 1.04869141 -8.625 1.0625 C-7.40683594 1.07990234 -7.40683594 1.07990234 -6.1640625 1.09765625 C-3.79725153 0.9908507 -2.35519775 0 0 0 Z " fill="#E2F9FD" transform="translate(246,653)"/>
<path d="M0 0 C2.55636103 1.27818051 2.62626316 2.17044944 3.5625 4.8125 C3.81128906 5.49957031 4.06007813 6.18664062 4.31640625 6.89453125 C4.97237659 8.91491989 5.51232694 10.93319514 6 13 C2.67148787 10.01581671 0.6794271 7.15437231 -1 3 C-0.67 2.01 -0.34 1.02 0 0 Z " fill="#121415" transform="translate(590,553)"/>
<path d="M0 0 C0.99 0 1.98 0 3 0 C3 2.97 3 5.94 3 9 C2.01 9.33 1.02 9.66 0 10 C0 6.7 0 3.4 0 0 Z " fill="#F1F1EF" transform="translate(453,410)"/>
<path d="M0 0 C-3.01490557 2.00993705 -5.2149927 2.72623341 -8.6875 3.625 C-10.17830078 4.01558594 -10.17830078 4.01558594 -11.69921875 4.4140625 C-12.45847656 4.60742188 -13.21773437 4.80078125 -14 5 C-13.67 4.01 -13.34 3.02 -13 2 C-8.56204759 0.5946484 -4.67869431 -0.29241839 0 0 Z " fill="#D6F1FA" transform="translate(207,367)"/>
<path d="M0 0 C0.66 0 1.32 0 2 0 C4.42857143 7.42857143 4.42857143 7.42857143 3 11 C0.39665076 8.28817788 0.00543309 7.10866187 -0.1875 3.25 C-0.125625 2.1775 -0.06375 1.105 0 0 Z " fill="#191B1B" transform="translate(744,624)"/>
<path d="M0 0 C3 2 3 2 4 4.0625 C4.89698316 6.35342991 4.89698316 6.35342991 8 7 C8.6875 9.0625 8.6875 9.0625 9 11 C2.18181818 6.75757576 2.18181818 6.75757576 0 3 C0 2.01 0 1.02 0 0 Z " fill="#0F1112" transform="translate(478,562)"/>
<path d="M0 0 C3.63 2.31 7.26 4.62 11 7 C9.68 7.33 8.36 7.66 7 8 C6.01 7.34 5.02 6.68 4 6 C4 5.34 4 4.68 4 4 C2.68 3.67 1.36 3.34 0 3 C0 2.01 0 1.02 0 0 Z " fill="#E0F8FE" transform="translate(221,645)"/>
<path d="M0 0 C3.3 0 6.6 0 10 0 C10 0.99 10 1.98 10 3 C8.02 3 6.04 3 4 3 C4 2.34 4 1.68 4 1 C2.68 0.67 1.36 0.34 0 0 Z " fill="#F1F0F0" transform="translate(670,632)"/>
<path d="M0 0 C0.33 0.99 0.66 1.98 1 3 C-0.98 3.99 -0.98 3.99 -3 5 C-1.125 1.125 -1.125 1.125 0 0 Z M-4 5 C-3.34 5.66 -2.68 6.32 -2 7 C-3.375 9 -3.375 9 -5 11 C-5.66 11 -6.32 11 -7 11 C-5.125 6.125 -5.125 6.125 -4 5 Z " fill="#181A1B" transform="translate(628,617)"/>
<path d="M0 0 C-0.33 0.99 -0.66 1.98 -1 3 C-5.29 2.67 -9.58 2.34 -14 2 C-14 1.67 -14 1.34 -14 1 C-9.27685687 0.22887459 -4.78478822 -0.09764874 0 0 Z " fill="#E4E5E2" transform="translate(548,608)"/>
<path d="M0 0 C0.33 0.99 0.66 1.98 1 3 C-2.96 2.67 -6.92 2.34 -11 2 C-11 1.67 -11 1.34 -11 1 C-7.27569643 0.30710631 -3.78916254 -0.11144596 0 0 Z " fill="#141516" transform="translate(446,572)"/>
<path d="M0 0 C0.66 0.33 1.32 0.66 2 1 C2 1.99 2 2.98 2 4 C-2.62 4 -7.24 4 -12 4 C-12 3.67 -12 3.34 -12 3 C-8.37 3 -4.74 3 -1 3 C-0.67 2.01 -0.34 1.02 0 0 Z " fill="#C8C9C9" transform="translate(515,505)"/>
<path d="M0 0 C1.98 0 3.96 0 6 0 C5.67 0.99 5.34 1.98 5 3 C1.04 3 -2.92 3 -7 3 C-7 2.67 -7 2.34 -7 2 C-4.69 2 -2.38 2 0 2 C0 1.34 0 0.68 0 0 Z " fill="#161719" transform="translate(436,485)"/>
<path d="M0 0 C1.15837573 3.47512718 0.77265943 5.13670286 0.0625 8.6875 C-0.13214844 9.68136719 -0.32679688 10.67523438 -0.52734375 11.69921875 C-0.68332031 12.45847656 -0.83929687 13.21773438 -1 14 C-1.33 14 -1.66 14 -2 14 C-2.33 10.37 -2.66 6.74 -3 3 C-2.01 2.67 -1.02 2.34 0 2 C0 1.34 0 0.68 0 0 Z " fill="#040505" transform="translate(542,429)"/>
<path d="M0 0 C0.33 0.99 0.66 1.98 1 3 C0.07421875 4.82421875 0.07421875 4.82421875 -1.3125 6.6875 C-1.76238281 7.31011719 -2.21226562 7.93273437 -2.67578125 8.57421875 C-3.11277344 9.04472656 -3.54976563 9.51523437 -4 10 C-4.66 10 -5.32 10 -6 10 C-4.34832443 6.4213696 -2.21713508 3.25179812 0 0 Z " fill="#DBF5FC" transform="translate(327,574)"/>
<path d="M0 0 C0.99 0.33 1.98 0.66 3 1 C3 1.66 3 2.32 3 3 C3.9590625 3.3403125 3.9590625 3.3403125 4.9375 3.6875 C7 5 7 5 7.75 7.625 C7.8325 8.40875 7.915 9.1925 8 10 C4.71211176 6.88983545 2.16264012 3.98381075 0 0 Z " fill="#DBF5FD" transform="translate(197,536)"/>
<path d="M0 0 C0.33 0.99 0.66 1.98 1 3 C-1.31 4.98 -3.62 6.96 -6 9 C-5.67 7.68 -5.34 6.36 -5 5 C-3.68352881 4.30062468 -2.34977849 3.63270867 -1 3 C-0.67 2.01 -0.34 1.02 0 0 Z " fill="#C8E2F4" transform="translate(294,454)"/>
<path d="M0 0 C2.31 0 4.62 0 7 0 C7 0.99 7 1.98 7 3 C5.02 3 3.04 3 1 3 C0.67 2.01 0.34 1.02 0 0 Z " fill="#ECEDEB" transform="translate(714,624)"/>
<path d="M0 0 C0.66 0 1.32 0 2 0 C4.95303159 3.07115285 5.52651586 5.8333396 6 10 C5.34 10 4.68 10 4 10 C2.68 6.7 1.36 3.4 0 0 Z " fill="#E8E9E9" transform="translate(675,620)"/>
<path d="M0 0 C0.99 0 1.98 0 3 0 C2.34 2.31 1.68 4.62 1 7 C0.01 7 -0.98 7 -2 7 C-1.34 4.69 -0.68 2.38 0 0 Z " fill="#0F1114" transform="translate(761,531)"/>
<path d="M0 0 C0.66 0.33 1.32 0.66 2 1 C-0.31 3.97 -2.62 6.94 -5 10 C-5.33 9.01 -5.66 8.02 -6 7 C-4.78515625 5.17578125 -4.78515625 5.17578125 -3.0625 3.3125 C-2.49660156 2.68988281 -1.93070312 2.06726563 -1.34765625 1.42578125 C-0.90292969 0.95527344 -0.45820313 0.48476563 0 0 Z " fill="#E1F7FE" transform="translate(269,482)"/>
<path d="M0 0 C4.455 2.97 4.455 2.97 9 6 C8.01 6.33 7.02 6.66 6 7 C2.8125 4.6875 2.8125 4.6875 0 2 C0 1.34 0 0.68 0 0 Z " fill="#E2F9FC" transform="translate(211,638)"/>
<path d="M0 0 C0.33 0 0.66 0 1 0 C1.25 2.75 1.25 2.75 1 6 C-1 8.375 -1 8.375 -3 10 C-2.69201674 8.51988629 -2.378482 7.04092675 -2.0625 5.5625 C-1.88847656 4.73878906 -1.71445312 3.91507813 -1.53515625 3.06640625 C-1 1 -1 1 0 0 Z " fill="#D6EFFB" transform="translate(352,518)"/>
<path d="M0 0 C0.99 0 1.98 0 3 0 C2.67 3.96 2.34 7.92 2 12 C1.67 12 1.34 12 1 12 C0.67 8.04 0.34 4.08 0 0 Z " fill="#111314" transform="translate(404,504)"/>
<path d="M0 0 C-2.63904371 1.41377341 -5.07120629 2.37240135 -8 3 C-8 2.01 -8 1.02 -8 0 C-4.94736336 -0.98120464 -3.05263664 -0.98120464 0 0 Z " fill="#151717" transform="translate(553,409)"/>
<path d="M0 0 C2.31 0 4.62 0 7 0 C7 0.99 7 1.98 7 3 C4.36 2.67 1.72 2.34 -1 2 C-0.67 1.34 -0.34 0.68 0 0 Z " fill="#FDFDFD" transform="translate(540,647)"/>
<path d="M0 0 C0.66 0 1.32 0 2 0 C5 5.75 5 5.75 5 8 C4.34 8 3.68 8 3 8 C0 2.25 0 2.25 0 0 Z " fill="#E7E8E7" transform="translate(441,615)"/>
<path d="M0 0 C0.33 0.66 0.66 1.32 1 2 C-0.65 4.31 -2.3 6.62 -4 9 C-4.66 8.67 -5.32 8.34 -6 8 C-4.02 5.36 -2.04 2.72 0 0 Z " fill="#E1F9FE" transform="translate(319,585)"/>
<path d="M0 0 C2.11180592 2.57089417 3.66306057 4.63060567 4 8 C3.34 8.66 2.68 9.32 2 10 C0.39644899 6.49223216 -0.22036864 3.85645121 0 0 Z " fill="#D5EFFA" transform="translate(135,549)"/>
<path d="M0 0 C0.66 0.33 1.32 0.66 2 1 C1.19185349 2.33597652 0.37836819 3.668725 -0.4375 5 C-0.88996094 5.7425 -1.34242188 6.485 -1.80859375 7.25 C-2.20175781 7.8275 -2.59492188 8.405 -3 9 C-3.33 9 -3.66 9 -4 9 C-4.25 6.75 -4.25 6.75 -4 4 C-2 1.6875 -2 1.6875 0 0 Z " fill="#E1F7FD" transform="translate(237,525)"/>
</svg>
